<svg width="100" height="30" viewBox="0 0 100 30" fill="none" xmlns="http://www.w3.org/2000/svg">
<g clip-path="url(#clip0_1_7116)">
<path d="M5.8661 30C5.62952 30 5.39989 30 5.1633 29.993C4.67621 29.993 4.19607 29.9436 3.71594 29.8661C3.2706 29.7886 2.83917 29.6407 2.43558 29.4364C2.03199 29.232 1.67015 28.9643 1.35006 28.6402C1.02997 28.3232 0.765553 27.9497 0.556799 27.5481C0.355004 27.1395 0.208876 26.7027 0.139292 26.2518C0.0627486 25.7656 0.0140394 25.2724 0.00708098 24.7792C0.00708098 24.6172 -0.00683594 24.0606 -0.00683594 24.0606V5.93941C-0.00683594 5.93941 -0.00683594 5.3969 0.00708098 5.23485C0.00708098 4.74166 0.0557902 4.24847 0.132333 3.76938C0.208876 3.31846 0.348045 2.87459 0.549841 2.46595C0.751636 2.0573 1.01606 1.69093 1.33615 1.36684C1.65624 1.04274 2.01808 0.775012 2.42167 0.563645C2.82526 0.359324 3.25668 0.211367 3.70202 0.133866C4.19607 0.0563645 4.68316 0.0140911 5.17026 0.00704556H5.8661L94.1272 0H94.8369C95.3171 0.0140911 95.7972 0.0563645 96.2773 0.140911C96.7296 0.218412 97.1611 0.366369 97.5716 0.57069C98.3788 0.993424 99.0329 1.65571 99.4434 2.46595C99.6452 2.87459 99.7844 3.31141 99.8609 3.76233C99.9444 4.24847 99.9862 4.74871 99.9932 5.2419C99.9932 5.46736 99.9932 5.69986 99.9932 5.93941C99.9932 6.23532 99.9932 6.5101 99.9932 6.79897V23.2151C99.9932 23.4969 99.9932 23.7788 99.9932 24.0606C99.9932 24.3142 99.9932 24.5467 99.9932 24.7863C99.9862 25.2724 99.9375 25.7586 99.8609 26.2377C99.7914 26.6956 99.6452 27.1325 99.4434 27.5481C99.2416 27.9497 98.9772 28.3161 98.6571 28.6332C98.344 28.9573 97.9752 29.225 97.5716 29.4364C97.168 29.6477 96.7296 29.7886 96.2773 29.8661C95.7972 29.9436 95.3171 29.9859 94.83 29.993C94.6003 29.993 94.3638 30 94.1341 30H93.2922H5.8661Z" fill="white"/>
<path d="M22.657 19.1003C22.3856 19.988 21.9821 20.8264 21.4532 21.5874C20.7435 22.6653 19.9989 23.7151 18.816 23.7363C17.6678 23.7644 17.2781 23.0528 15.963 23.0528C14.6478 23.0528 14.2234 23.7151 13.117 23.7644C11.9897 23.8067 11.1269 22.616 10.3962 21.5521C8.92103 19.3751 7.77985 15.4155 9.31767 12.717C10.0413 11.4065 11.3913 10.5681 12.8734 10.5188C14.0007 10.4977 15.0514 11.2868 15.7403 11.2868C16.4292 11.2868 17.7165 10.3356 19.0456 10.4765C20.312 10.5188 21.488 11.1599 22.2186 12.2097C21.0705 12.9213 20.3607 14.1825 20.3468 15.5493C20.3468 17.0923 21.2653 18.4873 22.664 19.0862L22.657 19.1003ZM18.1688 9.05331C18.816 8.27126 19.1291 7.26374 19.0525 6.24213C18.0644 6.34782 17.1598 6.82692 16.5058 7.58079C15.8586 8.32762 15.5316 9.29991 15.5942 10.2863C16.5962 10.2933 17.5426 9.84242 18.1688 9.05331ZM35.6276 13.4991L39.0999 23.236H37.5203L36.6435 20.601H32.9764L32.0927 23.236H30.541L34.0132 13.4991H35.6276ZM36.2608 19.3892L34.8274 15.1195H34.7856L33.3522 19.3892H36.2608ZM46.6011 19.6851C46.6011 21.8903 45.4321 23.3065 43.6716 23.3065C42.76 23.3558 41.9041 22.8697 41.4657 22.0665H41.4309V25.5822H39.9905V16.1341H41.3822V17.3178H41.4101C41.8693 16.5146 42.7252 16.0355 43.6437 16.0636C45.4251 16.0636 46.5941 17.4868 46.5941 19.6921L46.6011 19.6851ZM45.1189 19.6851C45.1189 18.2478 44.3883 17.3037 43.268 17.3037C42.1477 17.3037 41.4309 18.2689 41.4309 19.6851C41.4309 21.1012 42.1685 22.0735 43.268 22.0735C44.3674 22.0735 45.1189 21.1364 45.1189 19.6851ZM54.318 19.6851C54.318 21.8903 53.149 23.3065 51.3885 23.3065C50.4769 23.3558 49.6211 22.8697 49.1827 22.0665H49.1479V25.5822H47.7075V16.1341H49.0992V17.3178H49.127C49.5863 16.5146 50.4421 16.0355 51.3607 16.0636C53.142 16.0636 54.3111 17.4868 54.3111 19.6921L54.318 19.6851ZM52.8359 19.6851C52.8359 18.2478 52.1052 17.3037 50.9849 17.3037C49.8646 17.3037 49.1479 18.2689 49.1479 19.6851C49.1479 21.1012 49.8855 22.0735 50.9849 22.0735C52.0843 22.0735 52.8359 21.1364 52.8359 19.6851ZM62.529 17.7334L61.4713 17.4728C60.2327 17.1628 59.7247 16.7541 59.7247 16.0707C59.7247 15.2041 60.518 14.6123 61.6801 14.6123C62.8421 14.6123 63.6354 15.197 63.7189 16.1693H65.1732C65.1245 14.4854 63.7328 13.337 61.7009 13.337C59.6691 13.337 58.2008 14.4925 58.2008 16.1693C58.2008 17.5291 59.0219 18.3605 60.7894 18.7973L62.0349 19.1003C63.2805 19.4103 63.8093 19.8612 63.8093 20.6221C63.8093 21.4958 62.9395 22.1299 61.7218 22.1299C60.5041 22.1299 59.5299 21.4958 59.4255 20.5305H57.9503C58.0408 22.2919 59.4812 23.4051 61.6174 23.4051C63.8998 23.4051 65.3332 22.2637 65.3332 20.4389C65.3332 19.0157 64.5121 18.2125 62.5429 17.7405L62.529 17.7334ZM68.4298 14.4502H66.9824V16.1341H65.9595V17.2896H66.9824V21.3619C66.9824 22.7358 67.5391 23.2783 68.9586 23.2783C69.23 23.2783 69.4944 23.2642 69.7588 23.2078V22.0594C69.5988 22.0806 69.4457 22.0876 69.2857 22.0946C68.7011 22.0946 68.4298 21.8128 68.4298 21.1999V17.2825H69.7658V16.1271H68.4298V14.4432V14.4502ZM77.1905 19.6851C77.1905 21.9256 75.9031 23.3206 73.8643 23.3206C71.8255 23.3206 70.5382 21.9256 70.5382 19.6851C70.5382 17.4446 71.8394 16.0496 73.8643 16.0496C75.8892 16.0496 77.1905 17.4516 77.1905 19.6851ZM75.7222 19.6851C75.7222 18.1491 75.0264 17.2473 73.8643 17.2473C72.7023 17.2473 72.0064 18.1562 72.0064 19.6851C72.0064 21.214 72.7023 22.1228 73.8643 22.1228C75.0264 22.1228 75.7222 21.228 75.7222 19.6851ZM79.779 17.3459H79.7442V16.1341H78.3734V23.236H79.8138V19.0228C79.8068 18.9453 79.7999 18.8748 79.8068 18.7973C79.8416 17.9871 80.5166 17.353 81.3168 17.3882C81.5325 17.3882 81.7552 17.4093 81.964 17.4728V16.1059C81.8039 16.0707 81.6369 16.0496 81.4699 16.0496C80.6766 16.0214 79.9738 16.5568 79.786 17.3318L79.779 17.3459ZM83.7244 20.0514V20.136C83.634 21.1505 84.3785 22.0524 85.3806 22.144C85.4571 22.144 85.5336 22.151 85.6102 22.144C86.306 22.2074 86.9671 21.8058 87.2315 21.1435H88.5954C88.4005 22.4328 87.1619 23.3135 85.5754 23.3135C83.5366 23.3135 82.2701 21.9326 82.2701 19.7062C82.2701 17.4798 83.5435 16.0355 85.5128 16.0355C87.482 16.0355 88.6719 17.3882 88.6719 19.5371V20.0373H83.7175L83.7244 20.0514ZM83.7244 19.0298H87.2315C87.2802 18.0857 86.5705 17.2825 85.638 17.2332C85.5963 17.2332 85.5545 17.2332 85.5058 17.2332C84.5247 17.2332 83.7244 18.0294 83.7175 19.0228C83.7175 19.0228 83.7175 19.0298 83.7175 19.0369L83.7244 19.0298ZM33.1713 10.8429H31.5012V6.16463H33.1713C34.2985 6.08009 35.2797 6.93964 35.3562 8.08103C35.3632 8.21489 35.3562 8.3558 35.3423 8.48967C35.3423 9.98333 34.5421 10.8429 33.1643 10.8429H33.1713ZM33.0878 10.1806C33.888 10.2299 34.5769 9.60991 34.6256 8.79967C34.6256 8.70103 34.6256 8.59535 34.6117 8.49671C34.723 7.68647 34.1663 6.94669 33.3661 6.83396C33.2756 6.81987 33.1782 6.81987 33.0878 6.81987H32.2179V10.1736H33.0878V10.1806ZM39.4408 8.7574C39.4478 8.86308 39.4478 8.96877 39.4408 9.07445C39.5313 9.99742 38.8633 10.8147 37.9587 10.8992C37.0471 10.9908 36.2399 10.3145 36.1564 9.39855C36.1425 9.29286 36.1425 9.18013 36.1564 9.07445C36.0729 8.15148 36.734 7.3342 37.6455 7.24965C38.5571 7.1651 39.3643 7.83443 39.4478 8.7574H39.4408ZM38.7311 9.07445C38.7311 8.30648 38.3901 7.86261 37.7986 7.86261C37.2072 7.86261 36.8662 8.31353 36.8662 9.07445C36.8662 9.83537 37.2002 10.2933 37.7986 10.2933C38.3971 10.2933 38.7311 9.84946 38.7311 9.07445ZM41.6049 10.8429L42.3216 8.24307H42.3773L43.101 10.8429H43.8177L44.778 7.31306H44.0891L43.4698 10.0115H43.4141L42.6974 7.31306H42.0363L41.3196 10.0115H41.2709L40.6446 7.31306H39.9488L40.9091 10.8429H41.6188H41.6049ZM47.8536 10.8429H48.5425V8.55308C48.5564 8.46853 48.5564 8.38398 48.5494 8.29944C48.5007 7.66534 47.958 7.19328 47.3317 7.2426C46.8864 7.20738 46.4689 7.46102 46.2879 7.86966H46.2392V7.30601H45.5782V10.8358H46.2671V8.77149C46.2671 8.72922 46.2671 8.68694 46.2671 8.65172C46.2879 8.20784 46.6637 7.86261 47.1021 7.8767C47.6101 7.8767 47.8536 8.15853 47.8536 8.72922V10.8429ZM50.3239 5.93213H49.635V10.8429H50.3239V5.93213ZM54.5685 8.7574C54.5755 8.86308 54.5755 8.96877 54.5685 9.07445C54.659 9.99742 53.991 10.8147 53.0864 10.8992C52.1818 10.9838 51.3676 10.3145 51.2841 9.39855C51.2772 9.29286 51.2772 9.18013 51.2841 9.07445C51.2006 8.15148 51.8617 7.3342 52.7732 7.24965C53.6848 7.1651 54.492 7.83443 54.5755 8.7574H54.5685ZM53.8588 9.07445C53.8588 8.30648 53.5178 7.86261 52.9263 7.86261C52.3348 7.86261 51.9939 8.31353 51.9939 9.07445C51.9939 9.83537 52.3279 10.2933 52.9263 10.2933C53.5247 10.2933 53.8588 9.84946 53.8588 9.07445ZM57.5537 10.8429V10.3497H57.498C57.2754 10.709 56.8718 10.9204 56.4473 10.9063C55.8697 10.9697 55.3479 10.5399 55.2922 9.95514C55.2922 9.91992 55.2922 9.88469 55.2922 9.84946C55.2922 9.21536 55.7584 8.84899 56.5865 8.79263L57.5328 8.73626V8.4333C57.5328 8.05989 57.2893 7.84852 56.8161 7.84852C56.4334 7.84852 56.169 7.98943 56.0924 8.24307H55.4244C55.494 7.63715 56.0576 7.24965 56.8509 7.24965C57.7276 7.24965 58.2217 7.69352 58.2217 8.4333V10.8429H57.5606H57.5537ZM57.5328 9.25059L56.6839 9.30695C56.2038 9.34218 55.988 9.50423 55.988 9.81423C55.988 10.1242 56.2594 10.3145 56.6352 10.3145C57.0875 10.3638 57.4911 10.0256 57.5328 9.56764C57.5328 9.56059 57.5328 9.5465 57.5328 9.53946V9.24354V9.25059ZM59.1263 9.08149C59.1263 7.9683 59.6899 7.25669 60.5737 7.25669C61.019 7.23556 61.4365 7.47511 61.6453 7.8767H61.694V5.93917H62.3829V10.8499H61.7218V10.2933H61.6661C61.4435 10.6879 61.019 10.9274 60.5737 10.9063C59.683 10.9063 59.1263 10.2017 59.1263 9.08149ZM59.8361 9.08149C59.8361 9.82832 60.184 10.2792 60.7685 10.2792C61.353 10.2792 61.7079 9.82128 61.7079 9.08149C61.7079 8.34171 61.3461 7.88375 60.7685 7.88375C60.1909 7.88375 59.8361 8.33467 59.8361 9.08149ZM67.0381 10.9063C66.1265 10.9979 65.3193 10.3215 65.2358 9.40559C65.2289 9.29991 65.2289 9.18718 65.2358 9.08149C65.1523 8.15853 65.8134 7.34124 66.7249 7.25669C67.6365 7.17215 68.4437 7.84148 68.5272 8.76444C68.5341 8.87013 68.5341 8.97581 68.5272 9.08149C68.6176 10.0045 67.9496 10.8217 67.045 10.9063H67.0381ZM66.878 10.2933C67.4765 10.2933 67.8105 9.84946 67.8105 9.07445C67.8105 8.29944 67.4695 7.86261 66.878 7.86261C66.2866 7.86261 65.9456 8.31353 65.9456 9.07445C65.9456 9.83537 66.2796 10.2933 66.878 10.2933ZM70.9696 7.88375C71.4776 7.88375 71.7211 8.16557 71.7211 8.73626V10.8499H72.41V8.56012C72.4239 8.47558 72.4239 8.39103 72.417 8.30648C72.3682 7.67238 71.8255 7.20033 71.1992 7.24965C70.7539 7.21442 70.3364 7.46806 70.1555 7.8767H70.1068V7.31306H69.4457V10.8429H70.1346V8.77854C70.1346 8.73626 70.1346 8.69399 70.1346 8.65876C70.1555 8.21489 70.5312 7.86966 70.9696 7.88375ZM75.6109 9.91287C75.6109 10.5963 75.9171 10.864 76.6825 10.864C76.8077 10.864 76.933 10.8499 77.0582 10.8288V10.2511C76.9678 10.2581 76.8843 10.2651 76.7938 10.2651C76.4529 10.2651 76.2998 10.1031 76.2998 9.72969V7.91193H77.0582V7.32715H76.2998V6.43236H75.6109V7.32715H75.0542V7.91193H75.6109V9.90583V9.91287ZM78.6865 8.78558C78.6865 8.73626 78.6865 8.69399 78.6865 8.64467C78.7213 8.19375 79.118 7.85557 79.5633 7.89079C80.0504 7.89079 80.3078 8.17966 80.3078 8.74331V10.8499H80.9967V8.56717C81.0037 8.49671 81.0107 8.41921 81.0037 8.34876C80.9689 7.70761 80.4261 7.21442 79.7929 7.24965C79.3406 7.21442 78.9162 7.46806 78.7283 7.88375H78.6726V5.93917H77.9907V10.8499H78.6796V8.78558H78.6865ZM81.8735 9.35627C81.8735 9.27172 81.8735 9.18013 81.8874 9.09559C81.7691 8.2008 82.3884 7.38351 83.2652 7.26374C83.3417 7.25669 83.4183 7.24965 83.4948 7.24965C84.462 7.24965 85.0535 7.91898 85.0535 9.03218V9.27877H82.5902V9.32104C82.5485 9.83537 82.9242 10.2863 83.4322 10.3286C83.46 10.3286 83.4879 10.3286 83.5227 10.3286C83.8567 10.3708 84.1907 10.2017 84.3507 9.89878H85.0118C84.8169 10.5681 84.1837 10.9979 83.5018 10.9204C82.625 10.9415 81.9013 10.244 81.8735 9.35627ZM82.5902 8.7574H84.3507C84.3855 8.28535 84.0376 7.8767 83.5714 7.84148C83.5435 7.84148 83.5157 7.84148 83.4879 7.84148C82.9938 7.84148 82.5902 8.23603 82.5833 8.73626C82.5833 8.74331 82.5833 8.75035 82.5833 8.7574H82.5902Z" fill="#00263A"/>
</g>
<defs>
<clipPath id="clip0_1_7116">
<rect width="100" height="30" fill="white"/>
</clipPath>
</defs>
</svg>
