<svg width="24" height="25" viewBox="0 0 24 25" fill="none" xmlns="http://www.w3.org/2000/svg">
<g clip-path="url(#clip0_1060_2882)">
<path d="M23.25 5.16895V7.7002H0.75V5.16895C0.75 3.87473 1.79953 2.8252 3.09375 2.8252H20.9062C22.2005 2.8252 23.25 3.87473 23.25 5.16895Z" fill="#7FCE7A"/>
<path d="M20.9062 2.0752H18.75V0.950195C18.75 0.536008 18.4142 0.200195 18 0.200195C17.5858 0.200195 17.25 0.536008 17.25 0.950195V2.0752H6.75V0.950195C6.75 0.536008 6.41423 0.200195 6 0.200195C5.58577 0.200195 5.25 0.536008 5.25 0.950195V2.0752H3.09375C1.38783 2.0752 0 3.46302 0 5.16895V21.1064C0 22.8124 1.38783 24.2002 3.09375 24.2002H20.9062C22.6122 24.2002 24 22.8124 24 21.1064V5.16895C24 3.46302 22.6122 2.0752 20.9062 2.0752ZM3.09375 3.5752H5.25V4.3252C5.25 4.73938 5.58577 5.0752 6 5.0752C6.41423 5.0752 6.75 4.73938 6.75 4.3252V3.5752H17.25V4.3252C17.25 4.73938 17.5858 5.0752 18 5.0752C18.4142 5.0752 18.75 4.73938 18.75 4.3252V3.5752H20.9062C21.7851 3.5752 22.5 4.29013 22.5 5.16895V6.9502H1.5V5.16895C1.5 4.29013 2.21494 3.5752 3.09375 3.5752ZM20.9062 22.7002H3.09375C2.21494 22.7002 1.5 21.9853 1.5 21.1064V8.4502H22.5V21.1064C22.5 21.9853 21.7851 22.7002 20.9062 22.7002Z" fill="#137054"/>
</g>
<defs>
<clipPath id="clip0_1060_2882">
<rect width="24" height="24" fill="white" transform="translate(0 0.200195)"/>
</clipPath>
</defs>
</svg>
