<svg width="12" height="12" viewBox="0 0 12 12" fill="none" xmlns="http://www.w3.org/2000/svg">
<path fill-rule="evenodd" clip-rule="evenodd" d="M7.21196 6.00011L11.7487 1.46333C12.0838 1.12819 12.0838 0.586489 11.7487 0.251353C11.4135 -0.0837842 10.8718 -0.0837842 10.5367 0.251353L6 4.78813L1.4633 0.251353C1.12817 -0.0837842 0.586479 -0.0837842 0.251348 0.251353C-0.0837827 0.586489 -0.0837827 1.12819 0.251348 1.46333L4.78804 6.00011L0.251348 10.5369C-0.0837827 10.872 -0.0837827 11.4137 0.251348 11.7489C0.418485 11.916 0.637906 12 0.857327 12C1.07675 12 1.29617 11.916 1.4633 11.7489L6 7.21209L10.5367 11.7489C10.7038 11.916 10.9233 12 11.1427 12C11.3621 12 11.5815 11.916 11.7487 11.7489C12.0838 11.4137 12.0838 10.872 11.7487 10.5369L7.21196 6.00011Z" fill="#00263A"/>
</svg>
