<svg width="181" height="54" viewBox="0 0 181 54" fill="none" xmlns="http://www.w3.org/2000/svg">
<path d="M42.541 10.3205C40.1882 7.46527 37.1612 6.85777 35.3882 6.77002H35.0848C34.6871 6.77002 34.3028 6.78352 33.9253 6.81052C33.9185 6.81052 33.9118 6.81052 33.905 6.81052C31.3095 7.01302 29.2264 7.89727 27.6826 9.44977C24.8039 12.359 24.696 16.7398 24.696 17.1043V25.319C24.696 6.76327 44.1253 12.845 44.1253 12.845C43.6533 11.9675 43.1208 11.1238 42.541 10.3205Z" fill="#4F9D5D"/>
<path d="M35.0848 4.04325H36.7567C33.0219 1.49175 28.505 0 23.6376 0C18.7702 0 14.2533 1.49175 10.5185 4.04325H12.1904C15.9252 4.04325 18.9252 5.16375 21.1028 7.36425C22.3095 8.57925 23.105 9.9765 23.6376 11.313C24.1702 9.9765 24.9657 8.57925 26.1724 7.36425C28.35 5.16375 31.3432 4.04325 35.0848 4.04325Z" fill="#7FCE7A"/>
<path d="M13.3837 6.81736C13.3837 6.81736 13.3702 6.81736 13.3635 6.81736C12.9859 6.79036 12.6017 6.77686 12.2039 6.77686H11.9005C10.1208 6.86461 7.10053 7.47211 4.74772 10.3274C4.16795 11.1306 3.63536 11.9744 3.16345 12.8519C3.16345 12.8519 22.5927 6.77686 22.5927 25.3259V17.1111C22.5927 16.7399 22.4848 12.3591 19.6061 9.45661C18.0691 7.90411 15.9792 7.01986 13.3837 6.81736Z" fill="#4F9D5D"/>
<path d="M46.8893 23.2134V38.3334C46.8893 41.8096 43.559 44.6244 39.4466 44.6244C34.4444 44.6244 30.123 41.1211 29.0916 36.2341L27.0556 26.5749C26.55 24.1584 26.8938 21.6271 28.1275 19.4874C28.6264 18.6301 29.2871 17.7729 30.1702 17.0101C32.2534 15.2214 35.1994 14.3169 38.9275 14.3169C38.9275 14.3169 45.4871 14.4721 46.6803 20.3716C46.7747 21.0061 46.8354 21.6541 46.8623 22.3021C46.8758 22.5991 46.8826 22.9029 46.8826 23.2066L46.8893 23.2134Z" fill="#137054"/>
<path d="M0.399414 23.2134V38.3334C0.399414 41.8096 3.72975 44.6244 7.84211 44.6244C12.8444 44.6244 17.1657 41.1211 18.1972 36.2341L20.2331 26.5749C20.7387 24.1584 20.3949 21.6271 19.1612 19.4874C18.6623 18.6301 18.0017 17.7729 17.1185 17.0101C15.0354 15.2214 12.0893 14.3169 8.36121 14.3169C8.36121 14.3169 1.80166 14.4721 0.608403 20.3716C0.514021 21.0061 0.453347 21.6541 0.42638 22.3021C0.406156 22.6059 0.399414 22.9096 0.399414 23.2134Z" fill="#137054"/>
<path d="M23.6443 33.73C23.4016 40.0615 17.914 42.8222 17.914 47.8375C17.914 50.9087 20.5971 53.6762 23.6443 53.6762C26.6915 53.6762 29.3747 50.902 29.3747 47.8375C29.3747 42.829 23.8938 40.0615 23.6443 33.73Z" fill="#4F9D5D"/>
<path d="M65.4825 21.7959C66.3185 22.0322 67.2623 22.1469 68.2803 22.1469C71.5432 22.1469 72.8983 21.0062 72.8983 18.8597C72.8983 17.3004 72.2106 16.4364 70.6533 15.5319L68.1859 14.1009C67.3904 13.6419 67.1679 13.4057 67.1679 12.9602C67.1679 12.2987 67.6668 12.0962 68.9275 12.0962C69.8376 12.0962 70.5926 12.1907 71.2466 12.3932C72.1162 12.6294 72.3387 12.4472 72.3387 11.5629V11.3807C72.3387 10.5572 72.1365 10.3344 71.2466 10.0914C70.5387 9.88893 69.7634 9.79443 68.9275 9.79443C65.9072 9.79443 64.6061 10.8204 64.6061 12.8792C64.6061 14.2224 65.2398 15.2484 66.4803 15.9639L68.8533 17.3409C70.0398 18.0227 70.3365 18.3129 70.3365 18.8462C70.3365 19.5819 69.7971 19.8384 68.314 19.8384C67.3702 19.8384 66.4398 19.7102 65.496 19.4672C64.6601 19.2444 64.4174 19.4672 64.4174 20.3312V20.5134C64.4174 21.3369 64.5994 21.5394 65.4758 21.7824L65.4825 21.7959Z" fill="#EFFFEE"/>
<path d="M78.0556 22.147C80.8533 22.147 82.0803 21.175 82.0803 19.1905V15.6805C82.0803 13.399 80.5028 12.5215 77.5904 12.5215C77.0511 12.5215 76.5522 12.5552 76.087 12.616C75.2915 12.7442 75.0825 12.9467 75.0825 13.7365V13.8107C75.0825 14.6207 75.305 14.803 76.1207 14.6747C76.6735 14.6005 77.2129 14.5667 77.732 14.5667C79.0129 14.5667 79.6601 14.803 79.6601 15.6872V16.3892H77.7859C75.2848 16.3892 74.0241 17.341 74.0241 19.258C74.0241 21.175 75.2511 22.1605 78.0488 22.1605L78.0556 22.147ZM77.7589 18.178H79.6668V19.0622C79.5724 20.0545 78.9657 20.1625 78.0151 20.149C77.105 20.1692 76.5118 20.0747 76.4376 19.1905C76.4376 18.5087 76.8825 18.178 77.7522 18.178H77.7589Z" fill="#EFFFEE"/>
<path d="M84.9319 21.9242H85.2825C86.1185 21.9242 86.3207 21.7217 86.3207 20.8982V17.0034C86.3207 15.3294 87.0825 14.7759 88.323 14.7759C89.3612 14.7759 89.8803 15.1269 89.8803 16.0989V20.8982C89.8803 21.7217 90.0825 21.9242 90.9185 21.9242H91.269C92.105 21.9242 92.3072 21.7217 92.3072 20.8982V15.6804C92.3072 14.5599 91.9904 13.7499 91.3836 13.2572C90.7701 12.7577 90.0286 12.5214 89.1589 12.5214C87.9185 12.5214 86.9679 12.8724 86.3207 13.5677V10.0914C86.3207 9.26793 86.1185 9.06543 85.2825 9.06543H84.9319C84.096 9.06543 83.8937 9.26793 83.8937 10.0914V20.8982C83.8937 21.7217 84.096 21.9242 84.9319 21.9242Z" fill="#EFFFEE"/>
<path d="M95.1724 21.9241H95.523C96.359 21.9241 96.5612 21.7216 96.5612 20.8981V16.2271C96.5612 15.2011 96.8915 14.7759 98.0983 14.7759C99.305 14.7759 99.6354 15.2011 99.6354 16.2271V20.8981C99.6354 21.7216 99.8376 21.9241 100.674 21.9241H100.95C101.786 21.9241 101.988 21.7216 101.988 20.8981V16.2271C101.988 15.2011 102.305 14.7759 103.566 14.7759C104.826 14.7759 105.069 15.2011 105.069 16.2271V20.8981C105.069 21.7216 105.271 21.9241 106.107 21.9241H106.458C107.294 21.9241 107.496 21.7216 107.496 20.8981V16.2271C107.496 13.7296 106.256 12.5146 103.566 12.5146C102.325 12.5146 101.415 12.8994 100.842 13.6891C100.303 12.8994 99.3792 12.5146 98.0983 12.5146C95.5028 12.5146 94.1275 13.8174 94.1275 16.2271V20.8981C94.1275 21.7216 94.3297 21.9241 95.1657 21.9241H95.1724Z" fill="#EFFFEE"/>
<path d="M122.894 9.98349H122.638C121.768 9.98349 121.559 10.2197 121.559 11.05V19.5752C121.559 20.0005 121.505 20.0882 121.282 20.0882C121.114 20.0882 121.006 19.96 120.952 19.7035L119.024 12.0017C118.599 10.294 117.966 9.76074 116.429 9.76074C114.595 9.76074 113.853 10.4762 113.853 12.589V20.8577C113.853 21.688 114.056 21.9242 114.932 21.9242H115.188C116.058 21.9242 116.267 21.688 116.267 20.8577V12.3662C116.267 11.9072 116.307 11.8127 116.53 11.8127C116.752 11.8127 116.806 11.9072 116.9 12.3257L118.788 19.825C119.233 21.5732 119.88 22.1402 121.498 22.1402C123.258 22.1402 123.986 21.4247 123.986 19.312V11.0432C123.986 10.213 123.784 9.97674 122.907 9.97674L122.894 9.98349Z" fill="#EFFFEE"/>
<path d="M133.748 19.1905V15.6805C133.748 13.399 132.17 12.5215 129.258 12.5215C128.718 12.5215 128.22 12.5552 127.754 12.616C126.959 12.7442 126.75 12.9467 126.75 13.7365V13.8107C126.75 14.6207 126.972 14.803 127.788 14.6747C128.341 14.6005 128.88 14.5667 129.399 14.5667C130.68 14.5667 131.327 14.803 131.327 15.6872V16.3892H129.453C126.952 16.3892 125.692 17.341 125.692 19.258C125.692 21.175 126.918 22.1605 129.716 22.1605C132.514 22.1605 133.741 21.1885 133.741 19.204L133.748 19.1905ZM128.112 19.1905C128.112 18.5087 128.557 18.178 129.426 18.178H131.334V19.0622C131.24 20.0545 130.633 20.1625 129.683 20.149C128.772 20.1692 128.179 20.0747 128.105 19.1905H128.112Z" fill="#EFFFEE"/>
<path d="M136.599 21.9242H136.93C137.766 21.9242 137.968 21.7217 137.968 20.8982V10.0914C137.968 9.26793 137.766 9.06543 136.93 9.06543H136.599C135.763 9.06543 135.561 9.26793 135.561 10.0914V20.8982C135.561 21.7217 135.763 21.9242 136.599 21.9242Z" fill="#EFFFEE"/>
<path d="M141.197 21.1209C141.716 21.7621 142.053 21.9309 142.882 21.9309H143.813C144.649 21.9309 144.723 21.7689 144.204 21.1209L141.366 17.6649C141.143 17.4084 141.035 17.2059 141.035 17.0776C141.035 16.9291 141.143 16.7266 141.386 16.4701L143.813 13.5339C144.332 12.8926 144.278 12.7441 143.442 12.7441H142.512C141.676 12.7441 141.345 12.8926 140.826 13.5339L139.323 15.3699C138.784 16.0314 138.602 16.3959 138.602 17.0034C138.602 17.6109 138.844 18.2184 139.323 18.8056L141.197 21.1209Z" fill="#EFFFEE"/>
<path d="M146.988 21.9242H147.339C148.175 21.9242 148.377 21.7217 148.377 20.8982V17.0034C148.377 15.3294 149.139 14.7759 150.379 14.7759C151.417 14.7759 151.936 15.1269 151.936 16.0989V20.8982C151.936 21.7217 152.139 21.9242 152.975 21.9242H153.325C154.161 21.9242 154.363 21.7217 154.363 20.8982V15.6804C154.363 14.5599 154.047 13.7499 153.44 13.2572C152.826 12.7577 152.085 12.5214 151.215 12.5214C149.975 12.5214 149.024 12.8724 148.377 13.5677V10.0914C148.377 9.26793 148.175 9.06543 147.339 9.06543H146.988C146.152 9.06543 145.95 9.26793 145.95 10.0914V20.8982C145.95 21.7217 146.152 21.9242 146.988 21.9242Z" fill="#EFFFEE"/>
<path d="M160.842 22.1469C161.752 22.1469 162.494 22.0726 163.1 21.9106C163.916 21.7081 164.085 21.5259 164.085 20.7159V20.5134C164.085 19.6494 163.903 19.4671 163.1 19.6291C162.285 19.7911 161.543 19.8856 160.856 19.8856C159.15 19.8856 158.429 19.4469 158.429 18.4884V18.2116H163.141C164.011 18.2116 164.253 18.0294 164.348 17.1991C164.368 16.9764 164.381 16.7401 164.381 16.4836C164.381 13.8376 163.026 12.5146 160.323 12.5146C157.451 12.5146 156.002 13.8916 156.002 16.6456V18.1171C156.002 20.9319 157.518 22.1401 160.842 22.1401V22.1469ZM158.429 15.9909C158.429 15.0526 159.042 14.5936 160.249 14.5936C161.456 14.5936 162.082 15.0526 162.082 15.9909V16.2676H158.429V15.9909Z" fill="#EFFFEE"/>
<path d="M170.671 22.1469C171.581 22.1469 172.323 22.0726 172.93 21.9106C173.745 21.7081 173.914 21.5259 173.914 20.7159V20.5134C173.914 19.6494 173.732 19.4671 172.93 19.6291C172.114 19.7911 171.372 19.8856 170.685 19.8856C168.979 19.8856 168.258 19.4469 168.258 18.4884V18.2116H172.97C173.84 18.2116 174.082 18.0294 174.177 17.1991C174.197 16.9764 174.211 16.7401 174.211 16.4836C174.211 13.8376 172.856 12.5146 170.152 12.5146C167.28 12.5146 165.831 13.8916 165.831 16.6456V18.1171C165.831 20.9319 167.348 22.1401 170.671 22.1401V22.1469ZM168.258 15.9909C168.258 15.0526 168.871 14.5936 170.078 14.5936C171.285 14.5936 171.912 15.0526 171.912 15.9909V16.2676H168.258V15.9909Z" fill="#EFFFEE"/>
<path d="M178.606 22.1132C178.849 22.1132 179.031 22.0929 179.166 22.0794C179.665 21.9849 179.793 21.7824 179.793 21.0467V20.6957C179.793 19.9802 179.665 19.8519 179.166 19.8519H179.071C178.498 19.8519 178.256 19.5549 178.256 18.6167V10.0914C178.256 9.26793 178.053 9.06543 177.217 9.06543H176.887C176.051 9.06543 175.849 9.26793 175.849 10.0914V19.1499C175.849 21.1547 176.921 22.1064 178.613 22.1064L178.606 22.1132Z" fill="#EFFFEE"/>
<path d="M100.33 42.5454H98.0646V44.4422H100.33V42.5454Z" fill="#EFFFEE"/>
<path d="M97.0331 42.5454H94.7679V44.4422H97.0331V42.5454Z" fill="#EFFFEE"/>
<path d="M109.532 30.6855H107.253V32.5958H109.532V30.6855Z" fill="#EFFFEE"/>
<path d="M118.97 38.421C118.97 39.0623 118.606 39.4133 118.006 39.4133H113.664C113.664 36.261 111.082 33.8378 108.055 33.8378C106.06 33.8378 103.862 34.9583 103.808 37.4963H105.925C106.026 36.2745 106.943 35.8155 108.055 35.8155C110.139 35.8155 111.419 37.368 111.399 39.4133H101.914C100.916 39.4133 100.316 38.7855 100.316 37.8135V34.776H98.0711V38.0903C98.0711 39.0285 97.606 39.4065 96.7363 39.4065H76.8486C75.8509 39.4065 75.2509 38.7788 75.2509 37.8068V30.915H73.0194V38.8328C73.0194 40.878 71.5026 42.2145 69.7902 42.2145C68.179 42.2145 66.6284 40.662 66.6284 38.8868C66.6284 37.368 67.1273 36.3623 67.1273 36.3623H64.7947C64.5116 37.233 64.4442 37.7933 64.4442 38.8868C64.4442 42.0188 66.8576 44.442 69.7835 44.442C72.197 44.442 74.2127 43.092 74.9408 40.8645C75.3925 41.2763 76.0397 41.607 76.97 41.607H97.3633C98.3947 41.607 99.2576 41.148 99.6621 40.4528C100.094 41.0468 100.828 41.607 102.042 41.607H118.201C120.999 41.607 121.215 39.231 121.215 38.2928V34.2698H118.97V38.4278V38.421Z" fill="#EFFFEE"/>
<path d="M120.757 30.9219H118.491V32.8321H120.757V30.9219Z" fill="#EFFFEE"/>
<path d="M177.568 34.2833V38.7518C177.548 39.5416 177.318 40.3651 176.22 40.3651C175.518 40.3651 174.905 39.7373 174.871 38.6506V34.7761H172.64V38.7518C172.62 39.5416 172.39 40.3651 171.292 40.3651C170.59 40.3651 169.977 39.7373 169.943 38.6506V34.7761H167.698V38.4211C167.698 39.0623 167.334 39.4133 166.734 39.4133H161.604C161.874 39.1501 161.988 38.8328 161.988 37.8946V35.6873C161.988 34.1888 160.795 32.9941 159.157 32.9873C157.518 32.9941 156.379 34.1146 156.379 35.6873V39.4133H140.779C139.883 39.4133 139.647 38.5561 139.647 37.6313C139.647 35.7346 138.285 33.7096 135.703 33.7096C133.903 33.7096 132.689 34.7153 132.123 35.9506C131.941 36.2341 131.671 36.3826 131.307 36.3826H129.507C126.71 36.3826 126.494 38.7383 126.494 39.6833V44.4488H128.739V39.5686C128.739 38.9408 129.103 38.5763 129.703 38.5763H131.017C131.368 38.5763 131.597 38.5291 131.833 38.4143C132.15 40.1153 133.478 41.7961 135.696 41.7961C136.93 41.7961 137.86 41.2696 138.541 40.5406C139.04 41.1346 139.822 41.6138 140.887 41.6138H156.366C156.649 42.9841 157.633 44.6176 159.979 44.6176C161.658 44.6176 162.959 43.7401 162.959 42.5048C162.959 42.2213 162.892 41.9446 162.608 41.6138H166.923C168.318 41.6138 169.074 41.0198 169.471 40.3111C170.172 41.6813 171.116 41.9446 172.249 41.9446C173.098 41.9446 174.332 41.3506 174.649 40.5406C175.35 41.4991 176.044 41.9446 177.177 41.9446C179.172 41.9446 179.793 40.3921 179.793 38.7653V34.2968H177.561L177.568 34.2833ZM135.703 39.8926C134.489 39.8926 134.085 38.9543 134.085 37.6313C134.085 36.4636 134.483 35.5051 135.703 35.5051C136.923 35.5051 137.334 36.4636 137.334 37.6313C137.334 38.9476 136.936 39.8926 135.703 39.8926ZM158.543 35.7886C158.543 35.5051 158.779 35.1811 159.157 35.1811C159.575 35.1811 159.824 35.5118 159.824 35.7886V38.4076C159.824 38.9678 159.244 39.5753 158.793 39.5753H158.543V35.7818V35.7886ZM160.094 42.9436C158.826 42.9436 158.496 41.6543 158.462 41.4923H159.892C160.404 41.5261 160.876 41.7083 160.876 42.0863C160.876 42.3968 160.492 42.9436 160.094 42.9436Z" fill="#EFFFEE"/>
</svg>
