<svg width="299" height="79" viewBox="0 0 299 79" fill="none" xmlns="http://www.w3.org/2000/svg">
<path d="M33.5288 1.96296C36.1188 1.96296 38.3821 2.47629 40.3188 3.50296C42.2555 4.52962 43.7488 5.97629 44.7988 7.84296C45.8721 9.68629 46.4088 11.8213 46.4088 14.248C46.4088 16.6513 45.8721 18.7863 44.7988 20.653C43.7488 22.5196 42.2438 23.9663 40.2838 24.993C38.3471 26.0196 36.0955 26.533 33.5288 26.533H24.3238V1.96296H33.5288ZM33.1438 21.353C35.4071 21.353 37.1688 20.7346 38.4288 19.498C39.6888 18.2613 40.3188 16.5113 40.3188 14.248C40.3188 11.9846 39.6888 10.223 38.4288 8.96296C37.1688 7.70296 35.4071 7.07296 33.1438 7.07296H30.3088V21.353H33.1438ZM58.6435 26.813C56.7302 26.813 55.0035 26.4046 53.4635 25.588C51.9468 24.7713 50.7452 23.6046 49.8585 22.088C48.9952 20.5713 48.5635 18.798 48.5635 16.768C48.5635 14.7613 49.0068 12.9996 49.8935 11.483C50.7802 9.94296 51.9935 8.76462 53.5335 7.94796C55.0735 7.13129 56.8002 6.72296 58.7135 6.72296C60.6268 6.72296 62.3535 7.13129 63.8935 7.94796C65.4335 8.76462 66.6468 9.94296 67.5335 11.483C68.4202 12.9996 68.8635 14.7613 68.8635 16.768C68.8635 18.7746 68.4085 20.548 67.4985 22.088C66.6118 23.6046 65.3868 24.7713 63.8235 25.588C62.2835 26.4046 60.5568 26.813 58.6435 26.813ZM58.6435 21.633C59.7868 21.633 60.7552 21.213 61.5485 20.373C62.3652 19.533 62.7735 18.3313 62.7735 16.768C62.7735 15.2046 62.3768 14.003 61.5835 13.163C60.8135 12.323 59.8568 11.903 58.7135 11.903C57.5468 11.903 56.5785 12.323 55.8085 13.163C55.0385 13.9796 54.6535 15.1813 54.6535 16.768C54.6535 18.3313 55.0268 19.533 55.7735 20.373C56.5435 21.213 57.5002 21.633 58.6435 21.633ZM100.074 7.00296L94.7887 26.533H88.1737L85.0937 13.863L81.9087 26.533H75.3287L70.0087 7.00296H75.9937L78.7587 20.968L82.0487 7.00296H88.3837L91.7087 20.898L94.4387 7.00296H100.074ZM114.256 6.79296C116.543 6.79296 118.363 7.53963 119.716 9.03296C121.093 10.503 121.781 12.533 121.781 15.123V26.533H115.831V15.928C115.831 14.6213 115.493 13.6063 114.816 12.883C114.139 12.1596 113.229 11.798 112.086 11.798C110.943 11.798 110.033 12.1596 109.356 12.883C108.679 13.6063 108.341 14.6213 108.341 15.928V26.533H102.356V7.00296H108.341V9.59296C108.948 8.72962 109.764 8.05296 110.791 7.56296C111.818 7.04962 112.973 6.79296 114.256 6.79296ZM131.925 0.632959V26.533H125.94V0.632959H131.925ZM145.152 26.813C143.239 26.813 141.512 26.4046 139.972 25.588C138.456 24.7713 137.254 23.6046 136.367 22.088C135.504 20.5713 135.072 18.798 135.072 16.768C135.072 14.7613 135.516 12.9996 136.402 11.483C137.289 9.94296 138.502 8.76462 140.042 7.94796C141.582 7.13129 143.309 6.72296 145.222 6.72296C147.136 6.72296 148.862 7.13129 150.402 7.94796C151.942 8.76462 153.156 9.94296 154.042 11.483C154.929 12.9996 155.372 14.7613 155.372 16.768C155.372 18.7746 154.917 20.548 154.007 22.088C153.121 23.6046 151.896 24.7713 150.332 25.588C148.792 26.4046 147.066 26.813 145.152 26.813ZM145.152 21.633C146.296 21.633 147.264 21.213 148.057 20.373C148.874 19.533 149.282 18.3313 149.282 16.768C149.282 15.2046 148.886 14.003 148.092 13.163C147.322 12.323 146.366 11.903 145.222 11.903C144.056 11.903 143.087 12.323 142.317 13.163C141.547 13.9796 141.162 15.1813 141.162 16.768C141.162 18.3313 141.536 19.533 142.282 20.373C143.052 21.213 144.009 21.633 145.152 21.633ZM157.357 16.733C157.357 14.7263 157.731 12.9646 158.477 11.448C159.247 9.93129 160.286 8.76462 161.592 7.94796C162.899 7.13129 164.357 6.72296 165.967 6.72296C167.344 6.72296 168.546 7.00296 169.572 7.56296C170.622 8.12296 171.427 8.85796 171.987 9.76796V7.00296H177.972V26.533H171.987V23.768C171.404 24.678 170.587 25.413 169.537 25.973C168.511 26.533 167.309 26.813 165.932 26.813C164.346 26.813 162.899 26.4046 161.592 25.588C160.286 24.748 159.247 23.5696 158.477 22.053C157.731 20.513 157.357 18.7396 157.357 16.733ZM171.987 16.768C171.987 15.2746 171.567 14.0963 170.727 13.233C169.911 12.3696 168.907 11.938 167.717 11.938C166.527 11.938 165.512 12.3696 164.672 13.233C163.856 14.073 163.447 15.2396 163.447 16.733C163.447 18.2263 163.856 19.4163 164.672 20.303C165.512 21.1663 166.527 21.598 167.717 21.598C168.907 21.598 169.911 21.1663 170.727 20.303C171.567 19.4396 171.987 18.2613 171.987 16.768ZM181.112 16.733C181.112 14.7263 181.486 12.9646 182.232 11.448C183.002 9.93129 184.041 8.76462 185.347 7.94796C186.654 7.13129 188.112 6.72296 189.722 6.72296C191.006 6.72296 192.172 6.99129 193.222 7.52796C194.296 8.06462 195.136 8.78796 195.742 9.69796V0.632959H201.727V26.533H195.742V23.733C195.182 24.6663 194.377 25.413 193.327 25.973C192.301 26.533 191.099 26.813 189.722 26.813C188.112 26.813 186.654 26.4046 185.347 25.588C184.041 24.748 183.002 23.5696 182.232 22.053C181.486 20.513 181.112 18.7396 181.112 16.733ZM195.742 16.768C195.742 15.2746 195.322 14.0963 194.482 13.233C193.666 12.3696 192.662 11.938 191.472 11.938C190.282 11.938 189.267 12.3696 188.427 13.233C187.611 14.073 187.202 15.2396 187.202 16.733C187.202 18.2263 187.611 19.4163 188.427 20.303C189.267 21.1663 190.282 21.598 191.472 21.598C192.662 21.598 193.666 21.1663 194.482 20.303C195.322 19.4396 195.742 18.2613 195.742 16.768ZM225.094 26.778C222.784 26.778 220.661 26.2413 218.724 25.168C216.811 24.0946 215.283 22.6013 214.139 20.688C213.019 18.7513 212.459 16.5813 212.459 14.178C212.459 11.7746 213.019 9.61629 214.139 7.70296C215.283 5.78962 216.811 4.29629 218.724 3.22296C220.661 2.14963 222.784 1.61296 225.094 1.61296C227.404 1.61296 229.516 2.14963 231.429 3.22296C233.366 4.29629 234.883 5.78962 235.979 7.70296C237.099 9.61629 237.659 11.7746 237.659 14.178C237.659 16.5813 237.099 18.7513 235.979 20.688C234.859 22.6013 233.343 24.0946 231.429 25.168C229.516 26.2413 227.404 26.778 225.094 26.778ZM225.094 21.318C227.054 21.318 228.618 20.6646 229.784 19.358C230.974 18.0513 231.569 16.3246 231.569 14.178C231.569 12.008 230.974 10.2813 229.784 8.99796C228.618 7.69129 227.054 7.03796 225.094 7.03796C223.111 7.03796 221.524 7.67962 220.334 8.96296C219.168 10.2463 218.584 11.9846 218.584 14.178C218.584 16.348 219.168 18.0863 220.334 19.393C221.524 20.6763 223.111 21.318 225.094 21.318ZM260.274 7.00296V26.533H254.289V23.873C253.682 24.7363 252.854 25.4363 251.804 25.973C250.777 26.4863 249.634 26.743 248.374 26.743C246.881 26.743 245.562 26.4163 244.419 25.763C243.276 25.0863 242.389 24.118 241.759 22.858C241.129 21.598 240.814 20.1163 240.814 18.413V7.00296H246.764V17.608C246.764 18.9146 247.102 19.9296 247.779 20.653C248.456 21.3763 249.366 21.738 250.509 21.738C251.676 21.738 252.597 21.3763 253.274 20.653C253.951 19.9296 254.289 18.9146 254.289 17.608V7.00296H260.274ZM270.558 10.258C271.258 9.18462 272.133 8.34462 273.183 7.73796C274.233 7.10796 275.399 6.79296 276.683 6.79296V13.128H275.038C273.544 13.128 272.424 13.4546 271.678 14.108C270.931 14.738 270.558 15.858 270.558 17.468V26.533H264.573V7.00296H270.558V10.258ZM28.1034 44.963V69.533H22.1184V54.798L16.6234 69.533H11.7934L6.2634 54.763V69.533H0.278399V44.963H7.3484L14.2434 61.973L21.0684 44.963H28.1034ZM41.2973 69.813C39.384 69.813 37.6573 69.4046 36.1173 68.588C34.6006 67.7713 33.399 66.6046 32.5123 65.088C31.649 63.5713 31.2173 61.798 31.2173 59.768C31.2173 57.7613 31.6606 55.9996 32.5473 54.483C33.434 52.943 34.6473 51.7646 36.1873 50.948C37.7273 50.1313 39.454 49.723 41.3673 49.723C43.2806 49.723 45.0073 50.1313 46.5473 50.948C48.0873 51.7646 49.3006 52.943 50.1873 54.483C51.074 55.9996 51.5173 57.7613 51.5173 59.768C51.5173 61.7746 51.0623 63.548 50.1523 65.088C49.2656 66.6046 48.0406 67.7713 46.4773 68.588C44.9373 69.4046 43.2106 69.813 41.2973 69.813ZM41.2973 64.633C42.4406 64.633 43.409 64.213 44.2023 63.373C45.019 62.533 45.4273 61.3313 45.4273 59.768C45.4273 58.2046 45.0306 57.003 44.2373 56.163C43.4673 55.323 42.5106 54.903 41.3673 54.903C40.2006 54.903 39.2323 55.323 38.4623 56.163C37.6923 56.9796 37.3073 58.1813 37.3073 59.768C37.3073 61.3313 37.6806 62.533 38.4273 63.373C39.1973 64.213 40.154 64.633 41.2973 64.633ZM60.6775 52.768C61.2375 51.858 62.0425 51.123 63.0925 50.563C64.1425 50.003 65.3441 49.723 66.6975 49.723C68.3075 49.723 69.7658 50.1313 71.0725 50.948C72.3791 51.7646 73.4058 52.9313 74.1525 54.448C74.9225 55.9646 75.3075 57.7263 75.3075 59.733C75.3075 61.7396 74.9225 63.513 74.1525 65.053C73.4058 66.5696 72.3791 67.748 71.0725 68.588C69.7658 69.4046 68.3075 69.813 66.6975 69.813C65.3208 69.813 64.1191 69.5446 63.0925 69.008C62.0658 68.448 61.2608 67.713 60.6775 66.803V69.533H54.6925V43.633H60.6775V52.768ZM69.2175 59.733C69.2175 58.2396 68.7975 57.073 67.9575 56.233C67.1408 55.3696 66.1258 54.938 64.9125 54.938C63.7225 54.938 62.7075 55.3696 61.8675 56.233C61.0508 57.0963 60.6425 58.2746 60.6425 59.768C60.6425 61.2613 61.0508 62.4396 61.8675 63.303C62.7075 64.1663 63.7225 64.598 64.9125 64.598C66.1025 64.598 67.1175 64.1663 67.9575 63.303C68.7975 62.4163 69.2175 61.2263 69.2175 59.733ZM81.4573 47.973C80.4073 47.973 79.544 47.6696 78.8673 47.063C78.214 46.433 77.8873 45.663 77.8873 44.753C77.8873 43.8196 78.214 43.0496 78.8673 42.443C79.544 41.813 80.4073 41.498 81.4573 41.498C82.484 41.498 83.324 41.813 83.9773 42.443C84.654 43.0496 84.9923 43.8196 84.9923 44.753C84.9923 45.663 84.654 46.433 83.9773 47.063C83.324 47.6696 82.484 47.973 81.4573 47.973ZM84.4323 50.003V69.533H78.4473V50.003H84.4323ZM94.7546 43.633V69.533H88.7696V43.633H94.7546ZM117.502 59.453C117.502 60.013 117.467 60.5963 117.397 61.203H103.852C103.945 62.4163 104.33 63.3496 105.007 64.003C105.707 64.633 106.559 64.948 107.562 64.948C109.055 64.948 110.094 64.318 110.677 63.058H117.047C116.72 64.3413 116.125 65.4963 115.262 66.523C114.422 67.5496 113.36 68.3546 112.077 68.938C110.794 69.5213 109.359 69.813 107.772 69.813C105.859 69.813 104.155 69.4046 102.662 68.588C101.169 67.7713 100.002 66.6046 99.1619 65.088C98.3219 63.5713 97.9019 61.798 97.9019 59.768C97.9019 57.738 98.3102 55.9646 99.1269 54.448C99.9669 52.9313 101.134 51.7646 102.627 50.948C104.12 50.1313 105.835 49.723 107.772 49.723C109.662 49.723 111.342 50.1196 112.812 50.913C114.282 51.7063 115.425 52.838 116.242 54.308C117.082 55.778 117.502 57.493 117.502 59.453ZM111.377 57.878C111.377 56.8513 111.027 56.0346 110.327 55.428C109.627 54.8213 108.752 54.518 107.702 54.518C106.699 54.518 105.847 54.8096 105.147 55.393C104.47 55.9763 104.05 56.8046 103.887 57.878H111.377ZM143.371 65.193H134.201L132.731 69.533H126.466L135.356 44.963H142.286L151.176 69.533H144.841L143.371 65.193ZM141.831 60.573L138.786 51.578L135.776 60.573H141.831ZM159.867 52.768C160.45 51.858 161.255 51.123 162.282 50.563C163.309 50.003 164.51 49.723 165.887 49.723C167.497 49.723 168.955 50.1313 170.262 50.948C171.569 51.7646 172.595 52.9313 173.342 54.448C174.112 55.9646 174.497 57.7263 174.497 59.733C174.497 61.7396 174.112 63.513 173.342 65.053C172.595 66.5696 171.569 67.748 170.262 68.588C168.955 69.4046 167.497 69.813 165.887 69.813C164.534 69.813 163.332 69.533 162.282 68.973C161.255 68.413 160.45 67.6896 159.867 66.803V78.843H153.882V50.003H159.867V52.768ZM168.407 59.733C168.407 58.2396 167.987 57.073 167.147 56.233C166.33 55.3696 165.315 54.938 164.102 54.938C162.912 54.938 161.897 55.3696 161.057 56.233C160.24 57.0963 159.832 58.2746 159.832 59.768C159.832 61.2613 160.24 62.4396 161.057 63.303C161.897 64.1663 162.912 64.598 164.102 64.598C165.292 64.598 166.307 64.1663 167.147 63.303C167.987 62.4163 168.407 61.2263 168.407 59.733ZM183.622 52.768C184.205 51.858 185.01 51.123 186.037 50.563C187.063 50.003 188.265 49.723 189.642 49.723C191.252 49.723 192.71 50.1313 194.017 50.948C195.323 51.7646 196.35 52.9313 197.097 54.448C197.867 55.9646 198.252 57.7263 198.252 59.733C198.252 61.7396 197.867 63.513 197.097 65.053C196.35 66.5696 195.323 67.748 194.017 68.588C192.71 69.4046 191.252 69.813 189.642 69.813C188.288 69.813 187.087 69.533 186.037 68.973C185.01 68.413 184.205 67.6896 183.622 66.803V78.843H177.637V50.003H183.622V52.768ZM192.162 59.733C192.162 58.2396 191.742 57.073 190.902 56.233C190.085 55.3696 189.07 54.938 187.857 54.938C186.667 54.938 185.652 55.3696 184.812 56.233C183.995 57.0963 183.587 58.2746 183.587 59.768C183.587 61.2613 183.995 62.4396 184.812 63.303C185.652 64.1663 186.667 64.598 187.857 64.598C189.047 64.598 190.062 64.1663 190.902 63.303C191.742 62.4163 192.162 61.2263 192.162 59.733Z" fill="#00263A"/>
<path d="M231.454 69.533H224.594L215.459 55.743V69.533H208.599V44.858H215.459L224.594 58.823V44.858H231.454V69.533ZM244.496 69.778C242.536 69.778 240.775 69.3696 239.211 68.553C237.671 67.7363 236.458 66.5696 235.571 65.053C234.685 63.5363 234.241 61.7513 234.241 59.698C234.241 57.668 234.685 55.8946 235.571 54.378C236.481 52.8613 237.706 51.6946 239.246 50.878C240.81 50.0613 242.571 49.653 244.531 49.653C246.491 49.653 248.241 50.0613 249.781 50.878C251.345 51.6946 252.57 52.8613 253.456 54.378C254.366 55.8946 254.821 57.668 254.821 59.698C254.821 61.728 254.366 63.513 253.456 65.053C252.57 66.5696 251.345 67.7363 249.781 68.553C248.218 69.3696 246.456 69.778 244.496 69.778ZM244.496 63.828C245.453 63.828 246.246 63.478 246.876 62.778C247.53 62.0546 247.856 61.028 247.856 59.698C247.856 58.368 247.53 57.353 246.876 56.653C246.246 55.953 245.465 55.603 244.531 55.603C243.598 55.603 242.816 55.953 242.186 56.653C241.556 57.353 241.241 58.368 241.241 59.698C241.241 61.0513 241.545 62.078 242.151 62.778C242.758 63.478 243.54 63.828 244.496 63.828ZM286.627 49.898L281.622 69.533H273.922L271.192 57.633L268.357 69.533H260.692L255.722 49.898H262.547L264.752 62.918L267.657 49.898H275.007L278.017 62.953L280.187 49.898H286.627ZM297.749 43.598L296.944 60.293H291.099L290.294 43.598H297.749ZM294.039 69.813C292.826 69.813 291.846 69.4863 291.099 68.833C290.376 68.1563 290.014 67.3046 290.014 66.278C290.014 65.2513 290.376 64.3996 291.099 63.723C291.846 63.0463 292.826 62.708 294.039 62.708C295.229 62.708 296.186 63.0463 296.909 63.723C297.656 64.3996 298.029 65.2513 298.029 66.278C298.029 67.2813 297.656 68.1213 296.909 68.798C296.186 69.4746 295.229 69.813 294.039 69.813Z" fill="#137054"/>
</svg>
