<svg width="24" height="25" viewBox="0 0 24 25" fill="none" xmlns="http://www.w3.org/2000/svg">
<g clip-path="url(#clip0_1060_1167)">
<path d="M16.3222 24.0192H3.49759C1.56924 24.0192 0 22.4499 0 20.5216V5.36527C0 3.43692 1.56924 1.86768 3.49759 1.86768H10.2713C10.9149 1.86768 11.4371 2.38999 11.4371 3.03352C11.4371 3.67706 10.9149 4.19937 10.2713 4.19937H3.49759C2.85518 4.19937 2.33174 4.72286 2.33174 5.36522V20.5215C2.33174 21.1651 2.85523 21.6874 3.49759 21.6874H16.3221C16.9657 21.6874 17.488 21.1651 17.488 20.5215V16.8607C17.488 16.216 18.0091 15.6948 18.6538 15.6948C19.2986 15.6948 19.8197 16.216 19.8197 16.8607V20.5215C19.8198 22.4511 18.2505 24.0192 16.3222 24.0192Z" fill="#137054"/>
<path d="M21.8717 2.54492C20.5835 1.25781 18.4965 1.25781 17.2083 2.54492L9.32697 10.4262C8.40126 11.3554 7.88129 12.6122 7.88129 13.9238V16.5353H10.4928C11.8044 16.5353 13.0612 16.0154 13.9904 15.0896L21.8717 7.20836C23.1588 5.92012 23.1589 3.8332 21.8717 2.54492Z" fill="#7FCE7A"/>
<path d="M10.4928 17.7016H7.8813C7.23772 17.7016 6.71545 17.1804 6.71545 16.5357V13.9253C6.71545 12.2943 7.3497 10.76 8.50158 9.60465L16.384 1.7221C18.1247 -0.0162202 20.9565 -0.0185638 22.696 1.7221C22.696 1.7221 22.696 1.7221 22.6972 1.7221C24.4343 3.46159 24.4343 6.29348 22.6972 8.03297L14.8147 15.9154C13.6594 17.0673 12.1239 17.7016 10.4928 17.7016ZM9.04715 15.3698H10.4928C11.5025 15.3698 12.4527 14.9769 13.1673 14.2657L21.0474 6.38563C21.8775 5.55554 21.8775 4.20196 21.0474 3.3707C20.2173 2.54178 18.8649 2.54061 18.0325 3.3707L10.1513 11.2508C9.44009 11.9643 9.0472 12.9145 9.0472 13.9241L9.04715 15.3698Z" fill="#137054"/>
<path d="M20.018 9.02746L21.8717 7.17374C23.1588 5.88546 23.1588 3.79854 21.8717 2.51025C20.5834 1.22314 18.4965 1.22314 17.2082 2.51025L15.5177 4.18909" fill="#7FCE7A"/>
<path d="M20.8422 9.85183L19.1937 8.20327L21.0474 6.34955C21.8775 5.51829 21.8775 4.16588 21.0462 3.33462C20.2173 2.5057 18.8649 2.50687 18.0313 3.33579L16.3396 5.0158L14.6957 3.36143L16.3862 1.6826C18.1269 -0.0533781 20.9576 -0.0522063 22.6959 1.68494C24.4343 3.4256 24.4343 6.25749 22.6971 7.99698L20.8422 9.85183Z" fill="#137054"/>
<path d="M20.0179 10.2167C19.7195 10.2167 19.421 10.1025 19.1937 9.87512L14.5302 5.21163C14.0743 4.75578 14.0743 4.01893 14.5302 3.56308C14.986 3.10723 15.7229 3.10723 16.1787 3.56308L20.8422 8.22656C21.2981 8.68241 21.2981 9.41927 20.8422 9.87512C20.6149 10.1025 20.3164 10.2167 20.0179 10.2167Z" fill="#137054"/>
</g>
<defs>
<clipPath id="clip0_1060_1167">
<rect width="24" height="24" fill="white" transform="translate(0 0.200195)"/>
</clipPath>
</defs>
</svg>
