<svg width="76" height="76" viewBox="0 0 76 76" fill="none" xmlns="http://www.w3.org/2000/svg">
<rect width="76" height="76" rx="38" fill="#00263A"/>
<g clip-path="url(#clip0_1_13049)">
<path d="M40.694 38.0004L52.169 26.5254C52.3467 26.3484 52.4876 26.138 52.5834 25.9063C52.6793 25.6746 52.7282 25.4261 52.7274 25.1754C52.7305 24.9252 52.6826 24.677 52.5866 24.4459C52.4906 24.2149 52.3485 24.0058 52.169 23.8315C51.9947 23.652 51.7856 23.5099 51.5546 23.4139C51.3235 23.3179 51.0753 23.27 50.8251 23.2731C50.5744 23.2723 50.3259 23.3212 50.0942 23.4171C49.8625 23.5129 49.6521 23.6538 49.4751 23.8315L38.0001 35.3065L26.5251 23.8315C26.3482 23.6538 26.1378 23.5129 25.9061 23.4171C25.6743 23.3212 25.4259 23.2723 25.1751 23.2731C24.9249 23.27 24.6767 23.3179 24.4457 23.4139C24.2146 23.5099 24.0056 23.652 23.8313 23.8315C23.6518 24.0058 23.5097 24.2149 23.4136 24.4459C23.3176 24.677 23.2697 24.9252 23.2729 25.1754C23.272 25.4261 23.321 25.6746 23.4168 25.9063C23.5127 26.138 23.6535 26.3484 23.8313 26.5254L35.3063 38.0004L23.8313 49.4754C23.6535 49.6523 23.5127 49.8627 23.4168 50.0944C23.321 50.3262 23.272 50.5746 23.2729 50.8254C23.2697 51.0756 23.3176 51.3238 23.4136 51.5548C23.5097 51.7859 23.6518 51.9949 23.8313 52.1692C24.0056 52.3488 24.2146 52.4909 24.4457 52.5869C24.6767 52.6829 24.9249 52.7308 25.1751 52.7276C25.4259 52.7285 25.6743 52.6795 25.9061 52.5837C26.1378 52.4878 26.3482 52.347 26.5251 52.1692L38.0001 40.6942L49.4751 52.1692C49.6521 52.347 49.8625 52.4878 50.0942 52.5837C50.3259 52.6795 50.5744 52.7285 50.8251 52.7276C51.3292 52.726 51.8121 52.5251 52.1685 52.1687C52.5249 51.8123 52.7258 51.3294 52.7274 50.8254C52.7282 50.5746 52.6793 50.3262 52.5834 50.0944C52.4876 49.8627 52.3467 49.6523 52.169 49.4754L40.694 38.0004Z" fill="white"/>
</g>
<defs>
<clipPath id="clip0_1_13049">
<rect width="29.4545" height="29.4545" fill="white" transform="translate(23.2727 23.2729)"/>
</clipPath>
</defs>
</svg>
