<svg width="35" height="35" viewBox="0 0 35 35" fill="none" xmlns="http://www.w3.org/2000/svg">
<g clip-path="url(#clip0_478_612)">
<path d="M33.6786 14.4572L19.4024 14.4565C18.772 14.4565 18.261 14.9675 18.261 15.5979V20.1585C18.261 20.7887 18.772 21.2998 19.4023 21.2998H27.4418C26.5615 23.5844 24.9184 25.4977 22.8221 26.7134L26.2501 32.6477C31.749 29.4674 35.0001 23.8873 35.0001 17.6407C35.0001 16.7513 34.9345 16.1155 34.8034 15.3996C34.7037 14.8556 34.2315 14.4572 33.6786 14.4572Z" fill="#167EE6"/>
<path d="M17.5 28.1524C13.5656 28.1524 10.131 26.0027 8.2863 22.8218L2.35229 26.2421C5.37207 31.4758 11.0291 35.0002 17.5 35.0002C20.6744 35.0002 23.6697 34.1455 26.25 32.656V32.6479L22.822 26.7136C21.2539 27.6231 19.4394 28.1524 17.5 28.1524Z" fill="#12B347"/>
<path d="M26.25 32.6558V32.6477L22.822 26.7134C21.254 27.6228 19.4396 28.1521 17.5 28.1521V35C20.6744 35 23.6698 34.1453 26.25 32.6558Z" fill="#0F993E"/>
<path d="M6.84783 17.5002C6.84783 15.5609 7.37707 13.7466 8.28632 12.1786L2.35231 8.7583C0.854629 11.3305 0 14.3176 0 17.5002C0 20.6827 0.854629 23.6699 2.35231 26.242L8.28632 22.8217C7.37707 21.2538 6.84783 19.4395 6.84783 17.5002Z" fill="#FFD500"/>
<path d="M17.5 6.84783C20.0656 6.84783 22.4222 7.75947 24.2629 9.27589C24.717 9.64995 25.377 9.62295 25.793 9.20698L29.0243 5.97563C29.4963 5.50368 29.4627 4.73115 28.9585 4.29379C25.8745 1.61827 21.8618 0 17.5 0C11.0291 0 5.37207 3.5244 2.35229 8.75813L8.2863 12.1784C10.131 8.99746 13.5656 6.84783 17.5 6.84783Z" fill="#FF4B26"/>
<path d="M24.2629 9.27589C24.717 9.64995 25.3771 9.62295 25.793 9.20698L29.0244 5.97564C29.4962 5.50368 29.4626 4.73115 28.9585 4.29379C25.8745 1.6182 21.8618 0 17.5 0V6.84783C20.0655 6.84783 22.4222 7.75947 24.2629 9.27589Z" fill="#D93F21"/>
</g>
<defs>
<clipPath id="clip0_478_612">
<rect width="35" height="35" fill="white"/>
</clipPath>
</defs>
</svg>
