<svg width="100" height="30" viewBox="0 0 100 30" fill="none" xmlns="http://www.w3.org/2000/svg">
<g clip-path="url(#clip0_1_7117)">
<path d="M94.3428 0H5.65723C2.53283 0 0 2.56453 0 5.72804V24.272C0 27.4355 2.53283 30 5.65723 30H94.3428C97.4672 30 100 27.4355 100 24.272V5.72804C100 2.56453 97.4672 0 94.3428 0Z" fill="white"/>
<path d="M32.7465 9.26472C32.4403 9.26472 32.162 9.2154 31.9045 9.11676C31.6471 9.01812 31.4244 8.87721 31.2365 8.68698C31.0486 8.5038 30.9025 8.28538 30.7981 8.04584C30.6937 7.79924 30.645 7.53151 30.645 7.2356C30.645 6.93968 30.6937 6.6649 30.7981 6.42536C30.9025 6.17876 31.0486 5.96739 31.2435 5.78421C31.4383 5.60103 31.661 5.46011 31.9115 5.35443C32.1689 5.25579 32.4473 5.20647 32.7604 5.20647C33.0875 5.20647 33.3867 5.26284 33.6511 5.36852C33.9155 5.48125 34.1382 5.63625 34.3261 5.84762L33.8668 6.29854C33.7137 6.14353 33.5467 6.0308 33.3728 5.9533C33.1988 5.8758 33.004 5.84057 32.7882 5.84057C32.5725 5.84057 32.3916 5.8758 32.2176 5.93921C32.0437 6.00967 31.8976 6.10126 31.7653 6.22808C31.6331 6.3549 31.5427 6.49581 31.4731 6.67195C31.4035 6.84104 31.3687 7.03127 31.3687 7.22855C31.3687 7.42583 31.4035 7.61606 31.4731 7.78515C31.5427 7.95424 31.6401 8.1022 31.7653 8.22902C31.8906 8.35584 32.0437 8.44743 32.2107 8.51789C32.3777 8.58834 32.5725 8.61652 32.7813 8.61652C32.9761 8.61652 33.164 8.58834 33.3449 8.52493C33.5258 8.46152 33.6998 8.35584 33.8598 8.20788L34.2704 8.75744C34.0686 8.92653 33.832 9.0463 33.5676 9.13085C33.3032 9.2154 33.0248 9.25767 32.7465 9.25767V9.26472ZM33.5885 8.66584V7.19332H34.2704V8.76448L33.5885 8.66584ZM36.0657 8.58834H38.2715V9.20835H35.342V5.25579H38.195V5.8758H36.0657V8.58834ZM36.01 6.89741H37.9514V7.50333H36.01V6.89741ZM39.9833 9.20835V5.8758H38.689V5.25579H42.0012V5.8758H40.707V9.20835H39.9833ZM44.3114 9.20835V5.25579H45.0351V9.20835H44.3114ZM46.9974 9.20835V5.8758H45.7031V5.25579H49.0154V5.8758H47.7211V9.20835H46.9974ZM53.1556 9.26472C52.8564 9.26472 52.5711 9.2154 52.3137 9.10971C52.0562 9.01108 51.8335 8.86312 51.6387 8.67994C51.4508 8.49675 51.3047 8.27834 51.2003 8.03174C51.0959 7.78515 51.0472 7.51742 51.0472 7.22855C51.0472 6.93968 51.0959 6.6649 51.2003 6.41831C51.3047 6.17172 51.4508 5.96035 51.6387 5.77716C51.8266 5.59398 52.0492 5.45307 52.3067 5.34739C52.5642 5.24875 52.8425 5.19238 53.1487 5.19238C53.4549 5.19238 53.7262 5.2417 53.9837 5.34034C54.2412 5.43898 54.4638 5.57989 54.6517 5.76307C54.8396 5.94626 54.9857 6.16467 55.0901 6.41127C55.1945 6.65786 55.2501 6.93264 55.2501 7.2215C55.2501 7.51037 55.1945 7.78515 55.0901 8.03174C54.9857 8.27834 54.8396 8.49675 54.6517 8.67994C54.4638 8.86312 54.2412 9.00403 53.9837 9.10971C53.7262 9.20835 53.4479 9.25767 53.1487 9.25767L53.1556 9.26472ZM53.1556 8.62357C53.3505 8.62357 53.5314 8.58834 53.6984 8.52493C53.8654 8.45448 54.0046 8.36288 54.1298 8.23606C54.2551 8.10924 54.3455 7.96833 54.4151 7.7922C54.4847 7.6231 54.5195 7.43287 54.5195 7.2356C54.5195 7.03832 54.4847 6.84809 54.4221 6.679C54.3525 6.5099 54.262 6.36195 54.1368 6.23513C54.0115 6.10831 53.8654 6.01671 53.6984 5.94626C53.5314 5.8758 53.3505 5.84762 53.1556 5.84762C52.9608 5.84762 52.7729 5.88285 52.6059 5.94626C52.4389 6.01671 52.2928 6.10831 52.1675 6.23513C52.0423 6.36195 51.9518 6.5099 51.8753 6.679C51.8057 6.84809 51.7709 7.03127 51.7709 7.2356C51.7709 7.43992 51.8057 7.6231 51.8753 7.7922C51.9449 7.96129 52.0423 8.10924 52.1675 8.23606C52.2928 8.36288 52.4389 8.46152 52.6059 8.52493C52.7729 8.59539 52.9608 8.62357 53.1556 8.62357ZM56.1339 9.20835V5.25579H56.7323L59.1817 8.30652H58.8894V5.25579H59.6061V9.20835H59.0077L56.5653 6.15762H56.8575V9.20835H56.1408H56.1339ZM50.4627 16.3103C48.7231 16.3103 47.3036 17.6489 47.3036 19.5019C47.3036 21.3549 48.7231 22.6936 50.4627 22.6936C52.2023 22.6936 53.6219 21.3408 53.6219 19.5019C53.6219 17.663 52.2023 16.3103 50.4627 16.3103ZM50.4627 21.4324C49.5094 21.4324 48.6814 20.6363 48.6814 19.5019C48.6814 18.3676 49.5025 17.5714 50.4627 17.5714C51.423 17.5714 52.2441 18.3535 52.2441 19.5019C52.2441 20.6503 51.423 21.4324 50.4627 21.4324ZM43.5669 16.3103C41.8273 16.3103 40.4078 17.6489 40.4078 19.5019C40.4078 21.3549 41.8273 22.6936 43.5669 22.6936C45.3065 22.6936 46.726 21.3408 46.726 19.5019C46.726 17.663 45.3065 16.3103 43.5669 16.3103ZM43.5669 21.4324C42.6136 21.4324 41.7855 20.6363 41.7855 19.5019C41.7855 18.3676 42.6066 17.5714 43.5669 17.5714C44.5272 17.5714 45.3483 18.3535 45.3483 19.5019C45.3483 20.6503 44.5272 21.4324 43.5669 21.4324ZM35.3629 17.2896V18.6424H38.5638C38.4663 19.4033 38.2158 19.9599 37.8331 20.3474C37.3669 20.8194 36.6432 21.3408 35.3629 21.3408C33.3936 21.3408 31.8558 19.7344 31.8558 17.7405C31.8558 15.7466 33.3936 14.1402 35.3629 14.1402C36.4275 14.1402 37.1999 14.563 37.7705 15.1055L38.7099 14.1543C37.9097 13.3793 36.845 12.7875 35.3559 12.7875C32.656 12.7875 30.3945 15.0139 30.3945 17.7405C30.3945 20.4672 32.663 22.6936 35.3559 22.6936C36.8102 22.6936 37.9097 22.2074 38.7656 21.3056C39.6493 20.4108 39.9207 19.1567 39.9207 18.1421C39.9207 17.8251 39.8998 17.5362 39.8511 17.2967H35.349L35.3629 17.2896ZM68.9235 18.3394C68.6591 17.6278 67.8589 16.3103 66.2236 16.3103C64.5884 16.3103 63.2524 17.6067 63.2524 19.5019C63.2524 21.2915 64.5884 22.6936 66.3767 22.6936C67.8241 22.6936 68.6591 21.7988 69.0001 21.2774L67.9285 20.5517C67.5736 21.0801 67.0795 21.4324 66.3767 21.4324C65.6739 21.4324 65.1729 21.1083 64.8459 20.4672L69.0557 18.7058L68.9096 18.3464L68.9235 18.3394ZM64.6301 19.4033C64.5953 18.1703 65.5695 17.5432 66.2793 17.5432C66.829 17.5432 67.2952 17.818 67.4483 18.2196L64.6301 19.4033ZM61.2066 22.4963H62.5913V13.1186H61.2066V22.4963ZM58.9381 17.0219H58.8894C58.5763 16.6485 57.9848 16.3103 57.2333 16.3103C55.6607 16.3103 54.2133 17.7123 54.2133 19.509C54.2133 21.3056 55.6607 22.6865 57.2333 22.6865C57.9848 22.6865 58.5832 22.3483 58.8894 21.9608H58.9381V22.4188C58.9381 23.6377 58.291 24.2929 57.2542 24.2929C56.4052 24.2929 55.8834 23.6799 55.6676 23.1586L54.4638 23.6658C54.8118 24.5113 55.7303 25.5541 57.2542 25.5541C58.8755 25.5541 60.2463 24.5888 60.2463 22.2285V16.5005H58.9312V17.0219H58.9381ZM57.3516 21.4324C56.3983 21.4324 55.5981 20.6222 55.5981 19.509C55.5981 18.3958 56.3983 17.5644 57.3516 17.5644C58.3049 17.5644 59.0355 18.3887 59.0355 19.509C59.0355 20.6292 58.2979 21.4324 57.3516 21.4324ZM75.4088 13.1186H72.0966V22.4963H73.4813V18.9453H75.4088C76.9397 18.9453 78.4496 17.8251 78.4496 16.0355C78.4496 14.2459 76.9466 13.1257 75.4088 13.1257V13.1186ZM75.4436 17.6348H73.4813V14.4221H75.4436C76.4804 14.4221 77.0649 15.2887 77.0649 16.0285C77.0649 16.7682 76.4804 17.6348 75.4436 17.6348ZM83.9886 16.2891C82.9865 16.2891 81.9497 16.733 81.5253 17.7264L82.75 18.2478C83.0144 17.7264 83.5015 17.5573 84.0094 17.5573C84.7262 17.5573 85.4498 17.9942 85.4638 18.7621V18.8608C85.2133 18.7128 84.6775 18.5014 84.0234 18.5014C82.7013 18.5014 81.3513 19.2342 81.3513 20.6151C81.3513 21.8692 82.4368 22.6795 83.6476 22.6795C84.58 22.6795 85.088 22.2567 85.4081 21.7635H85.4568V22.4892H86.7928V18.896C86.7928 17.2332 85.5681 16.3032 83.9816 16.3032L83.9886 16.2891ZM83.8216 21.4254C83.3693 21.4254 82.736 21.1929 82.736 20.6292C82.736 19.9035 83.5224 19.6287 84.2043 19.6287C84.8097 19.6287 85.095 19.7626 85.4638 19.9458C85.3594 20.8124 84.6148 21.4324 83.8216 21.4324V21.4254ZM91.6637 16.4935L90.0772 20.5588H90.0285L88.3863 16.4935H86.8972L89.3605 22.1722L87.9549 25.3356H89.3953L93.1946 16.4935H91.6568H91.6637ZM79.2151 22.4892H80.5998V13.1116H79.2151V22.4892Z" fill="#00263A"/>
<path d="M15.3429 14.5703L7.45898 23.0461C7.70253 23.9691 8.53059 24.6455 9.51869 24.6455C9.91532 24.6455 10.2841 24.5398 10.5972 24.3496L10.6251 24.3355L19.5041 19.1499L15.3499 14.5703H15.3429Z" fill="#EA4335"/>
<path d="M23.3243 13.1257H23.3173L19.4832 10.8711L15.1689 14.7602L19.5041 19.1496L23.3173 16.9232C23.9853 16.5569 24.4376 15.8453 24.4376 15.0209C24.4376 14.1966 23.9923 13.492 23.3312 13.1257H23.3243Z" fill="#FBBC04"/>
<path d="M7.45923 6.96094C7.41052 7.13708 7.38965 7.32731 7.38965 7.51754V22.4964C7.38965 22.6866 7.41748 22.8769 7.45923 23.053L15.6145 14.7956L7.45923 6.96798V6.96094Z" fill="#4285F4"/>
<path d="M15.4054 14.9999L19.49 10.8712L10.625 5.6645C10.3049 5.46722 9.92911 5.35449 9.52552 5.35449C8.53742 5.35449 7.70937 6.03087 7.46582 6.95383L15.4124 14.9999H15.4054Z" fill="#34A853"/>
</g>
<defs>
<clipPath id="clip0_1_7117">
<rect width="100" height="30" fill="white"/>
</clipPath>
</defs>
</svg>
