<svg width="13" height="14" viewBox="0 0 13 14" fill="none" xmlns="http://www.w3.org/2000/svg">
<path d="M6.75928 0.78935C7.56987 0.78935 8.33598 0.960818 9.0576 1.30376C9.77922 1.64669 10.4095 2.11453 10.9485 2.70727C11.487 3.30002 11.9121 3.99351 12.2236 4.78775C12.5352 5.58198 12.6908 6.42518 12.6904 7.31734C12.6904 8.22038 12.5346 9.06641 12.2231 9.85543C11.9115 10.6444 11.4864 11.3351 10.9479 11.9274C10.4093 12.5206 9.77942 12.9884 9.05819 13.3309C8.33697 13.6734 7.57066 13.8449 6.75928 13.8453C5.93881 13.8453 5.17013 13.6739 4.45325 13.3309C3.73637 12.988 3.10886 12.5202 2.5707 11.9274C2.03176 11.3347 1.6067 10.6438 1.29551 9.85477C0.984321 9.06576 0.828529 8.21995 0.828134 7.31734C0.828134 6.42518 0.983926 5.58198 1.29551 4.78775C1.60709 3.99351 2.03216 3.2998 2.5707 2.70662C3.10925 2.11388 3.73697 1.64604 4.45385 1.3031C5.17072 0.960166 5.9392 0.788915 6.75928 0.78935ZM6.75928 2.12759C6.50227 2.51927 6.27985 2.92727 6.09203 3.35159C5.90421 3.77591 5.75099 4.22743 5.63236 4.70615H7.8862C7.76758 4.22743 7.61436 3.77591 7.42654 3.35159C7.23872 2.92727 7.0163 2.51927 6.75928 2.12759ZM8.30138 2.38871C8.47931 2.74775 8.63511 3.1205 8.76875 3.50695C8.9024 3.89341 9.01351 4.29314 9.10208 4.70615H10.8518C10.5651 4.16215 10.2067 3.68887 9.77646 3.28631C9.34625 2.88375 8.85456 2.58455 8.30138 2.38871ZM5.21718 2.38871C4.66361 2.58455 4.17172 2.88375 3.74151 3.28631C3.31131 3.68887 2.95307 4.16215 2.66679 4.70615H4.41648C4.50545 4.29271 4.61656 3.89276 4.74981 3.5063C4.88306 3.11984 5.03885 2.74731 5.21718 2.38871ZM11.3559 6.01174H9.33933C9.36899 6.22934 9.39133 6.44433 9.40635 6.65671C9.42138 6.86909 9.42869 7.0893 9.4283 7.31734C9.4283 7.54582 9.42078 7.76603 9.40576 7.97798C9.39073 8.18992 9.36859 8.40491 9.33933 8.62294H11.3559C11.4053 8.40534 11.4425 8.19035 11.4674 7.97798C11.4923 7.7656 11.5046 7.54539 11.5042 7.31734C11.5042 7.08886 11.4917 6.86865 11.4668 6.65671C11.4419 6.44477 11.405 6.22978 11.3559 6.01174ZM8.1531 6.01174H5.36546C5.33581 6.22934 5.31347 6.44433 5.29844 6.65671C5.28341 6.86909 5.2761 7.0893 5.27649 7.31734C5.27649 7.54582 5.28401 7.76603 5.29903 7.97798C5.31406 8.18992 5.3362 8.40491 5.36546 8.62294H8.1531C8.18276 8.40534 8.2051 8.19035 8.22012 7.97798C8.23515 7.7656 8.24246 7.54539 8.24207 7.31734C8.24207 7.08886 8.23456 6.86865 8.21953 6.65671C8.2045 6.44477 8.18236 6.22978 8.1531 6.01174ZM4.17923 6.01174H2.16264C2.11322 6.22934 2.07605 6.44433 2.05114 6.65671C2.02623 6.86909 2.01397 7.0893 2.01436 7.31734C2.01436 7.54582 2.02682 7.76603 2.05173 7.97798C2.07664 8.18992 2.11361 8.40491 2.16264 8.62294H4.17923C4.14958 8.40534 4.12724 8.19035 4.11221 7.97798C4.09719 7.7656 4.08987 7.54539 4.09027 7.31734C4.09027 7.08886 4.09778 6.86865 4.1128 6.65671C4.12783 6.44477 4.14997 6.22978 4.17923 6.01174ZM4.41648 9.92854H2.66679C2.95346 10.4725 3.3117 10.9458 3.74151 11.3484C4.17132 11.7509 4.66321 12.0501 5.21718 12.246C5.03925 11.8869 4.88346 11.5142 4.74981 11.1277C4.61616 10.7413 4.50505 10.3415 4.41648 9.92854ZM7.8862 9.92854H5.63236C5.75099 10.4073 5.90421 10.8588 6.09203 11.2831C6.27985 11.7074 6.50227 12.1154 6.75928 12.5071C7.0163 12.1154 7.23872 11.7074 7.42654 11.2831C7.61436 10.8588 7.76758 10.4073 7.8862 9.92854ZM10.8518 9.92854H9.10208C9.01312 10.342 8.90181 10.7419 8.76816 11.1284C8.63451 11.5148 8.47892 11.8874 8.30138 12.246C8.85495 12.0501 9.34684 11.7509 9.77705 11.3484C10.2073 10.9458 10.5655 10.4725 10.8518 9.92854Z" fill="#EFFFEE"/>
</svg>
