<svg width="180" height="54" viewBox="0 0 180 54" fill="none" xmlns="http://www.w3.org/2000/svg">
<path d="M42.1416 10.3205C39.7888 7.46527 36.7618 6.85777 34.9888 6.77002H34.6854C34.2876 6.77002 33.9034 6.78352 33.5258 6.81052C33.5191 6.81052 33.5124 6.81052 33.5056 6.81052C30.9101 7.01302 28.827 7.89727 27.2831 9.44977C24.4045 12.359 24.2966 16.7398 24.2966 17.1043V25.319C24.2966 6.76327 43.7258 12.845 43.7258 12.845C43.2539 11.9675 42.7213 11.1238 42.1416 10.3205Z" fill="#EFFFEE"/>
<path d="M34.6854 4.04325H36.3573C32.6225 1.49175 28.1057 0 23.2382 0C18.3708 0 13.854 1.49175 10.1191 4.04325H11.7911C15.5259 4.04325 18.5259 5.16375 20.7034 7.36425C21.9102 8.57925 22.7057 9.9765 23.2382 11.313C23.7708 9.9765 24.5663 8.57925 25.7731 7.36425C27.9506 5.16375 30.9439 4.04325 34.6854 4.04325Z" fill="#EFFFEE"/>
<path d="M12.9844 6.81736C12.9844 6.81736 12.9709 6.81736 12.9642 6.81736C12.5866 6.79036 12.2024 6.77686 11.8046 6.77686H11.5012C9.72146 6.86461 6.70124 7.47211 4.34843 10.3274C3.76865 11.1306 3.23607 11.9744 2.76416 12.8519C2.76416 12.8519 22.1934 6.77686 22.1934 25.3259V17.1111C22.1934 16.7399 22.0855 12.3591 19.2069 9.45661C17.6698 7.90411 15.5799 7.01986 12.9844 6.81736Z" fill="#EFFFEE"/>
<path d="M46.4898 23.2134V38.3334C46.4898 41.8096 43.1594 44.6244 39.0471 44.6244C34.0448 44.6244 29.7235 41.1211 28.692 36.2341L26.6561 26.5749C26.1504 24.1584 26.4943 21.6271 27.728 19.4874C28.2269 18.6301 28.8875 17.7729 29.7707 17.0101C31.8538 15.2214 34.7999 14.3169 38.528 14.3169C38.528 14.3169 45.0875 14.4721 46.2808 20.3716C46.3752 21.0061 46.4358 21.6541 46.4628 22.3021C46.4763 22.5991 46.483 22.9029 46.483 23.2066L46.4898 23.2134Z" fill="#EFFFEE"/>
<path d="M0 23.2134V38.3334C0 41.8096 3.33034 44.6244 7.4427 44.6244C12.4449 44.6244 16.7663 41.1211 17.7978 36.2341L19.8337 26.5749C20.3393 24.1584 19.9955 21.6271 18.7618 19.4874C18.2629 18.6301 17.6022 17.7729 16.7191 17.0101C14.636 15.2214 11.6899 14.3169 7.9618 14.3169C7.9618 14.3169 1.40225 14.4721 0.208989 20.3716C0.114607 21.0061 0.0539326 21.6541 0.0269663 22.3021C0.00674157 22.6059 0 22.9096 0 23.2134Z" fill="#EFFFEE"/>
<path d="M23.245 33.73C23.0023 40.0615 17.5146 42.8222 17.5146 47.8375C17.5146 50.9087 20.1978 53.6762 23.245 53.6762C26.2922 53.6762 28.9753 50.902 28.9753 47.8375C28.9753 42.829 23.4944 40.0615 23.245 33.73Z" fill="#EFFFEE"/>
<path d="M65.0832 21.7959C65.9192 22.0322 66.863 22.1469 67.881 22.1469C71.1439 22.1469 72.499 21.0062 72.499 18.8597C72.499 17.3004 71.8113 16.4364 70.254 15.5319L67.7866 14.1009C66.9911 13.6419 66.7686 13.4057 66.7686 12.9602C66.7686 12.2987 67.2675 12.0962 68.5282 12.0962C69.4383 12.0962 70.1933 12.1907 70.8473 12.3932C71.7169 12.6294 71.9394 12.4472 71.9394 11.5629V11.3807C71.9394 10.5572 71.7372 10.3344 70.8473 10.0914C70.1394 9.88893 69.3641 9.79443 68.5282 9.79443C65.508 9.79443 64.2068 10.8204 64.2068 12.8792C64.2068 14.2224 64.8405 15.2484 66.081 15.9639L68.454 17.3409C69.6405 18.0227 69.9372 18.3129 69.9372 18.8462C69.9372 19.5819 69.3978 19.8384 67.9147 19.8384C66.9709 19.8384 66.0405 19.7102 65.0967 19.4672C64.2608 19.2444 64.0181 19.4672 64.0181 20.3312V20.5134C64.0181 21.3369 64.2001 21.5394 65.0765 21.7824L65.0832 21.7959Z" fill="#EFFFEE"/>
<path d="M77.6562 22.147C80.454 22.147 81.6809 21.175 81.6809 19.1905V15.6805C81.6809 13.399 80.1034 12.5215 77.191 12.5215C76.6517 12.5215 76.1528 12.5552 75.6877 12.616C74.8922 12.7442 74.6832 12.9467 74.6832 13.7365V13.8107C74.6832 14.6207 74.9057 14.803 75.7214 14.6747C76.2742 14.6005 76.8135 14.5667 77.3326 14.5667C78.6135 14.5667 79.2607 14.803 79.2607 15.6872V16.3892H77.3866C74.8854 16.3892 73.6248 17.341 73.6248 19.258C73.6248 21.175 74.8517 22.1605 77.6495 22.1605L77.6562 22.147ZM77.3596 18.178H79.2675V19.0622C79.1731 20.0545 78.5663 20.1625 77.6158 20.149C76.7057 20.1692 76.1124 20.0747 76.0382 19.1905C76.0382 18.5087 76.4832 18.178 77.3528 18.178H77.3596Z" fill="#EFFFEE"/>
<path d="M84.5326 21.9242H84.8831C85.7191 21.9242 85.9214 21.7217 85.9214 20.8982V17.0034C85.9214 15.3294 86.6832 14.7759 87.9236 14.7759C88.9618 14.7759 89.4809 15.1269 89.4809 16.0989V20.8982C89.4809 21.7217 89.6831 21.9242 90.5191 21.9242H90.8697C91.7056 21.9242 91.9079 21.7217 91.9079 20.8982V15.6804C91.9079 14.5599 91.591 13.7499 90.9843 13.2572C90.3708 12.7577 89.6292 12.5214 88.7596 12.5214C87.5191 12.5214 86.5685 12.8724 85.9214 13.5677V10.0914C85.9214 9.26793 85.7191 9.06543 84.8831 9.06543H84.5326C83.6966 9.06543 83.4944 9.26793 83.4944 10.0914V20.8982C83.4944 21.7217 83.6966 21.9242 84.5326 21.9242Z" fill="#EFFFEE"/>
<path d="M94.7732 21.9241H95.1238C95.9597 21.9241 96.162 21.7216 96.162 20.8981V16.2271C96.162 15.2011 96.4923 14.7759 97.6991 14.7759C98.9058 14.7759 99.2361 15.2011 99.2361 16.2271V20.8981C99.2361 21.7216 99.4384 21.9241 100.274 21.9241H100.551C101.387 21.9241 101.589 21.7216 101.589 20.8981V16.2271C101.589 15.2011 101.906 14.7759 103.166 14.7759C104.427 14.7759 104.67 15.2011 104.67 16.2271V20.8981C104.67 21.7216 104.872 21.9241 105.708 21.9241H106.059C106.895 21.9241 107.097 21.7216 107.097 20.8981V16.2271C107.097 13.7296 105.856 12.5146 103.166 12.5146C101.926 12.5146 101.016 12.8994 100.443 13.6891C99.9035 12.8994 98.98 12.5146 97.6991 12.5146C95.1036 12.5146 93.7283 13.8174 93.7283 16.2271V20.8981C93.7283 21.7216 93.9305 21.9241 94.7665 21.9241H94.7732Z" fill="#EFFFEE"/>
<path d="M122.495 9.98349H122.238C121.369 9.98349 121.16 10.2197 121.16 11.05V19.5752C121.16 20.0005 121.106 20.0882 120.883 20.0882C120.715 20.0882 120.607 19.96 120.553 19.7035L118.625 12.0017C118.2 10.294 117.566 9.76074 116.029 9.76074C114.196 9.76074 113.454 10.4762 113.454 12.589V20.8577C113.454 21.688 113.656 21.9242 114.533 21.9242H114.789C115.659 21.9242 115.868 21.688 115.868 20.8577V12.3662C115.868 11.9072 115.908 11.8127 116.131 11.8127C116.353 11.8127 116.407 11.9072 116.501 12.3257L118.389 19.825C118.834 21.5732 119.481 22.1402 121.099 22.1402C122.859 22.1402 123.587 21.4247 123.587 19.312V11.0432C123.587 10.213 123.384 9.97674 122.508 9.97674L122.495 9.98349Z" fill="#EFFFEE"/>
<path d="M133.348 19.1905V15.6805C133.348 13.399 131.771 12.5215 128.859 12.5215C128.319 12.5215 127.82 12.5552 127.355 12.616C126.56 12.7442 126.351 12.9467 126.351 13.7365V13.8107C126.351 14.6207 126.573 14.803 127.389 14.6747C127.942 14.6005 128.481 14.5667 129 14.5667C130.281 14.5667 130.928 14.803 130.928 15.6872V16.3892H129.054C126.553 16.3892 125.292 17.341 125.292 19.258C125.292 21.175 126.519 22.1605 129.317 22.1605C132.115 22.1605 133.342 21.1885 133.342 19.204L133.348 19.1905ZM127.712 19.1905C127.712 18.5087 128.157 18.178 129.027 18.178H130.935V19.0622C130.841 20.0545 130.234 20.1625 129.283 20.149C128.373 20.1692 127.78 20.0747 127.706 19.1905H127.712Z" fill="#EFFFEE"/>
<path d="M136.2 21.9242H136.53C137.366 21.9242 137.569 21.7217 137.569 20.8982V10.0914C137.569 9.26793 137.366 9.06543 136.53 9.06543H136.2C135.364 9.06543 135.162 9.26793 135.162 10.0914V20.8982C135.162 21.7217 135.364 21.9242 136.2 21.9242Z" fill="#EFFFEE"/>
<path d="M140.798 21.1209C141.317 21.7621 141.654 21.9309 142.483 21.9309H143.414C144.25 21.9309 144.324 21.7689 143.805 21.1209L140.966 17.6649C140.744 17.4084 140.636 17.2059 140.636 17.0776C140.636 16.9291 140.744 16.7266 140.987 16.4701L143.414 13.5339C143.933 12.8926 143.879 12.7441 143.043 12.7441H142.113C141.277 12.7441 140.946 12.8926 140.427 13.5339L138.924 15.3699C138.384 16.0314 138.202 16.3959 138.202 17.0034C138.202 17.6109 138.445 18.2184 138.924 18.8056L140.798 21.1209Z" fill="#EFFFEE"/>
<path d="M146.589 21.9242H146.94C147.775 21.9242 147.978 21.7217 147.978 20.8982V17.0034C147.978 15.3294 148.74 14.7759 149.98 14.7759C151.018 14.7759 151.537 15.1269 151.537 16.0989V20.8982C151.537 21.7217 151.74 21.9242 152.575 21.9242H152.926C153.762 21.9242 153.964 21.7217 153.964 20.8982V15.6804C153.964 14.5599 153.647 13.7499 153.041 13.2572C152.427 12.7577 151.686 12.5214 150.816 12.5214C149.575 12.5214 148.625 12.8724 147.978 13.5677V10.0914C147.978 9.26793 147.775 9.06543 146.94 9.06543H146.589C145.753 9.06543 145.551 9.26793 145.551 10.0914V20.8982C145.551 21.7217 145.753 21.9242 146.589 21.9242Z" fill="#EFFFEE"/>
<path d="M160.443 22.1469C161.353 22.1469 162.094 22.0726 162.701 21.9106C163.517 21.7081 163.685 21.5259 163.685 20.7159V20.5134C163.685 19.6494 163.503 19.4671 162.701 19.6291C161.885 19.7911 161.144 19.8856 160.456 19.8856C158.751 19.8856 158.029 19.4469 158.029 18.4884V18.2116H162.742C163.611 18.2116 163.854 18.0294 163.948 17.1991C163.969 16.9764 163.982 16.7401 163.982 16.4836C163.982 13.8376 162.627 12.5146 159.924 12.5146C157.052 12.5146 155.602 13.8916 155.602 16.6456V18.1171C155.602 20.9319 157.119 22.1401 160.443 22.1401V22.1469ZM158.029 15.9909C158.029 15.0526 158.643 14.5936 159.849 14.5936C161.056 14.5936 161.683 15.0526 161.683 15.9909V16.2676H158.029V15.9909Z" fill="#EFFFEE"/>
<path d="M170.272 22.1469C171.182 22.1469 171.924 22.0726 172.531 21.9106C173.346 21.7081 173.515 21.5259 173.515 20.7159V20.5134C173.515 19.6494 173.333 19.4671 172.531 19.6291C171.715 19.7911 170.973 19.8856 170.286 19.8856C168.58 19.8856 167.859 19.4469 167.859 18.4884V18.2116H172.571C173.441 18.2116 173.683 18.0294 173.778 17.1991C173.798 16.9764 173.811 16.7401 173.811 16.4836C173.811 13.8376 172.456 12.5146 169.753 12.5146C166.881 12.5146 165.432 13.8916 165.432 16.6456V18.1171C165.432 20.9319 166.949 22.1401 170.272 22.1401V22.1469ZM167.859 15.9909C167.859 15.0526 168.472 14.5936 169.679 14.5936C170.886 14.5936 171.513 15.0526 171.513 15.9909V16.2676H167.859V15.9909Z" fill="#EFFFEE"/>
<path d="M178.207 22.1132C178.449 22.1132 178.631 22.0929 178.766 22.0794C179.265 21.9849 179.393 21.7824 179.393 21.0467V20.6957C179.393 19.9802 179.265 19.8519 178.766 19.8519H178.672C178.099 19.8519 177.856 19.5549 177.856 18.6167V10.0914C177.856 9.26793 177.654 9.06543 176.818 9.06543H176.488C175.652 9.06543 175.449 9.26793 175.449 10.0914V19.1499C175.449 21.1547 176.521 22.1064 178.214 22.1064L178.207 22.1132Z" fill="#EFFFEE"/>
<path d="M99.9305 42.5454H97.6653V44.4422H99.9305V42.5454Z" fill="#EFFFEE"/>
<path d="M96.6338 42.5454H94.3687V44.4422H96.6338V42.5454Z" fill="#EFFFEE"/>
<path d="M109.133 30.6855H106.854V32.5958H109.133V30.6855Z" fill="#EFFFEE"/>
<path d="M118.571 38.421C118.571 39.0623 118.207 39.4133 117.607 39.4133H113.265C113.265 36.261 110.683 33.8378 107.656 33.8378C105.661 33.8378 103.463 34.9583 103.409 37.4963H105.526C105.627 36.2745 106.544 35.8155 107.656 35.8155C109.739 35.8155 111.02 37.368 111 39.4133H101.515C100.517 39.4133 99.9168 38.7855 99.9168 37.8135V34.776H97.6719V38.0903C97.6719 39.0285 97.2067 39.4065 96.3371 39.4065H76.4494C75.4517 39.4065 74.8517 38.7788 74.8517 37.8068V30.915H72.6202V38.8328C72.6202 40.878 71.1033 42.2145 69.391 42.2145C67.7798 42.2145 66.2292 40.662 66.2292 38.8868C66.2292 37.368 66.7281 36.3623 66.7281 36.3623H64.3955C64.1123 37.233 64.0449 37.7933 64.0449 38.8868C64.0449 42.0188 66.4584 44.442 69.3842 44.442C71.7977 44.442 73.8135 43.092 74.5416 40.8645C74.9932 41.2763 75.6404 41.607 76.5708 41.607H96.964C97.9955 41.607 98.8584 41.148 99.2629 40.4528C99.6944 41.0468 100.429 41.607 101.643 41.607H117.802C120.6 41.607 120.816 39.231 120.816 38.2928V34.2698H118.571V38.4278V38.421Z" fill="#EFFFEE"/>
<path d="M120.357 30.9219H118.092V32.8321H120.357V30.9219Z" fill="#EFFFEE"/>
<path d="M177.169 34.2833V38.7518C177.148 39.5416 176.919 40.3651 175.82 40.3651C175.119 40.3651 174.506 39.7373 174.472 38.6506V34.7761H172.241V38.7518C172.22 39.5416 171.991 40.3651 170.892 40.3651C170.191 40.3651 169.578 39.7373 169.544 38.6506V34.7761H167.299V38.4211C167.299 39.0623 166.935 39.4133 166.335 39.4133H161.205C161.474 39.1501 161.589 38.8328 161.589 37.8946V35.6873C161.589 34.1888 160.396 32.9941 158.757 32.9873C157.119 32.9941 155.98 34.1146 155.98 35.6873V39.4133H140.38C139.483 39.4133 139.247 38.5561 139.247 37.6313C139.247 35.7346 137.885 33.7096 135.303 33.7096C133.503 33.7096 132.29 34.7153 131.724 35.9506C131.542 36.2341 131.272 36.3826 130.908 36.3826H129.108C126.31 36.3826 126.094 38.7383 126.094 39.6833V44.4488H128.339V39.5686C128.339 38.9408 128.703 38.5763 129.303 38.5763H130.618C130.969 38.5763 131.198 38.5291 131.434 38.4143C131.751 40.1153 133.079 41.7961 135.297 41.7961C136.53 41.7961 137.461 41.2696 138.142 40.5406C138.641 41.1346 139.423 41.6138 140.488 41.6138H155.966C156.25 42.9841 157.234 44.6176 159.58 44.6176C161.259 44.6176 162.56 43.7401 162.56 42.5048C162.56 42.2213 162.492 41.9446 162.209 41.6138H166.524C167.919 41.6138 168.674 41.0198 169.072 40.3111C169.773 41.6813 170.717 41.9446 171.85 41.9446C172.699 41.9446 173.933 41.3506 174.25 40.5406C174.951 41.4991 175.645 41.9446 176.778 41.9446C178.773 41.9446 179.393 40.3921 179.393 38.7653V34.2968H177.162L177.169 34.2833ZM135.303 39.8926C134.09 39.8926 133.685 38.9543 133.685 37.6313C133.685 36.4636 134.083 35.5051 135.303 35.5051C136.524 35.5051 136.935 36.4636 136.935 37.6313C136.935 38.9476 136.537 39.8926 135.303 39.8926ZM158.144 35.7886C158.144 35.5051 158.38 35.1811 158.757 35.1811C159.175 35.1811 159.425 35.5118 159.425 35.7886V38.4076C159.425 38.9678 158.845 39.5753 158.393 39.5753H158.144V35.7818V35.7886ZM159.694 42.9436C158.427 42.9436 158.097 41.6543 158.063 41.4923H159.492C160.005 41.5261 160.477 41.7083 160.477 42.0863C160.477 42.3968 160.092 42.9436 159.694 42.9436Z" fill="#EFFFEE"/>
</svg>
