<svg width="35" height="35" viewBox="0 0 35 35" fill="none" xmlns="http://www.w3.org/2000/svg">
<circle cx="17.5" cy="17.5" r="17.5" fill="#4F9D5D"/>
<path d="M24.4974 21.5485C23.2734 20.5139 22.5716 19.0017 22.5716 17.3997V15.1427C22.5716 12.294 20.4555 9.93581 17.7144 9.54076V8.66646C17.7144 8.21879 17.3517 7.85693 16.9049 7.85693C16.458 7.85693 16.0953 8.21879 16.0953 8.66646V9.54076C13.3535 9.93581 11.2382 12.294 11.2382 15.1427V17.3997C11.2382 19.0017 10.5363 20.5139 9.305 21.555C8.9901 21.8246 8.80957 22.2164 8.80957 22.6308C8.80957 23.412 9.44505 24.0475 10.2262 24.0475H23.5835C24.3647 24.0475 25.0002 23.412 25.0002 22.6308C25.0002 22.2164 24.8196 21.8246 24.4974 21.5485Z" fill="white"/>
<path d="M16.9049 27.2855C18.3709 27.2855 19.5974 26.2404 19.8791 24.8569H13.9307C14.2124 26.2404 15.4388 27.2855 16.9049 27.2855Z" fill="white"/>
</svg>
