<svg width="52" height="51" viewBox="0 0 52 51" fill="none" xmlns="http://www.w3.org/2000/svg">
<path d="M26.0004 0.184082C20.9934 0.184082 16.0988 1.66883 11.9357 4.45056C7.77251 7.2323 4.52772 11.1861 2.61163 15.8119C0.695539 20.4378 0.194202 25.528 1.17102 30.4387C2.14783 35.3495 4.55893 39.8604 8.09941 43.4008C11.6399 46.9413 16.1507 49.3524 21.0615 50.3292C25.9723 51.306 31.0625 50.8047 35.6883 48.8886C40.3142 46.9725 44.2679 43.7277 47.0497 39.5646C49.8314 35.4014 51.3162 30.5069 51.3162 25.4999C51.3082 18.7882 48.6385 12.3536 43.8925 7.60771C39.1466 2.8618 32.7121 0.192049 26.0004 0.184082ZM41.3062 27.1173C41.1155 27.3081 40.8892 27.4594 40.6401 27.5626C40.391 27.6659 40.1239 27.719 39.8543 27.719C39.5846 27.719 39.3176 27.6659 39.0685 27.5626C38.8193 27.4594 38.593 27.3081 38.4024 27.1173L28.2473 16.9623V38.9939C28.2473 39.5383 28.0311 40.0604 27.6461 40.4453C27.2612 40.8302 26.7391 41.0465 26.1947 41.0465C25.6503 41.0465 25.1282 40.8302 24.7433 40.4453C24.3583 40.0604 24.1421 39.5383 24.1421 38.9939V16.9185L13.961 27.0996C13.5739 27.4735 13.0554 27.6804 12.5172 27.6757C11.979 27.671 11.4642 27.4551 11.0836 27.0746C10.703 26.694 10.4871 26.1792 10.4825 25.641C10.4778 25.1028 10.6847 24.5843 11.0586 24.1971L24.7209 10.5335C24.9115 10.3427 25.1379 10.1914 25.387 10.0882C25.6361 9.98492 25.9031 9.93178 26.1728 9.93178C26.4425 9.93178 26.7095 9.98492 26.9586 10.0882C27.2077 10.1914 27.4341 10.3427 27.6247 10.5335L41.3089 24.2177C41.6925 24.6028 41.9077 25.1245 41.9072 25.6681C41.9066 26.2117 41.6905 26.7329 41.3062 27.1173Z" fill="#4F9D5D"/>
</svg>
