<svg width="27" height="28" viewBox="0 0 27 28" fill="none" xmlns="http://www.w3.org/2000/svg">
<g clip-path="url(#clip0_1048_2991)">
<path d="M0.63941 23.5934L6.84689 17.3854C5.79219 15.7063 5.18006 13.7217 5.18006 11.5919C5.18006 5.56624 10.0648 0.682129 16.0903 0.682129C22.1157 0.682129 27 5.56624 27 11.5919C27 17.6177 22.1159 22.5014 16.0903 22.5014C13.7724 22.5014 11.6255 21.7767 9.85891 20.5454L3.72531 26.6795C3.29911 27.1052 2.74039 27.3173 2.18236 27.3173C1.62364 27.3173 1.06561 27.1052 0.638729 26.6795C-0.212984 25.8269 -0.212984 24.4458 0.63941 23.5934ZM16.0903 18.9668C20.1629 18.9668 23.4647 15.6652 23.4647 11.5923C23.4647 7.51947 20.1629 4.21764 16.0903 4.21764C12.0174 4.21764 8.71579 7.51947 8.71579 11.5923C8.71579 15.6652 12.0174 18.9668 16.0903 18.9668Z" fill="#4F9D5D"/>
</g>
<defs>
<clipPath id="clip0_1048_2991">
<rect width="27" height="27" fill="white" transform="matrix(-1 0 0 1 27 0.5)"/>
</clipPath>
</defs>
</svg>
