<svg width="162" height="161" viewBox="0 0 162 161" fill="none" xmlns="http://www.w3.org/2000/svg">
<g clip-path="url(#clip0_1_12988)">
<path d="M161.186 80.5C161.186 96.3897 156.469 111.842 147.546 125.188C146.334 127.002 144.341 127.982 142.312 127.982C141.111 127.982 139.896 127.64 138.823 126.921C135.935 124.991 135.16 121.085 137.089 118.198C144.625 106.928 148.607 93.8925 148.607 80.5C148.607 74.7453 147.888 69.0299 146.468 63.5146C145.602 60.1515 147.627 56.722 150.99 55.856C154.356 54.9912 157.783 57.0155 158.649 60.3787C160.332 66.9184 161.186 73.6877 161.186 80.5ZM115.821 138.641C105.257 145.039 93.1077 148.422 80.6856 148.422C43.2337 148.422 12.7637 117.952 12.7637 80.5C12.7637 43.0482 43.2337 12.5781 80.6856 12.5781C94.5522 12.5781 107.886 16.7274 119.247 24.5777C122.104 26.5516 126.021 25.8355 127.996 22.9784C129.97 20.1213 129.255 16.2042 126.397 14.229C112.924 4.9207 97.1182 0 80.6856 0C59.1836 0 38.9677 8.37355 23.7634 23.5779C8.55909 38.7822 0.185547 58.9981 0.185547 80.5C0.185547 102.002 8.55909 122.218 23.7634 137.422C38.9677 152.627 59.1836 161 80.6856 161C95.4059 161 109.809 156.988 122.338 149.398C125.31 147.599 126.259 143.732 124.46 140.761C122.659 137.789 118.792 136.841 115.821 138.641ZM81.2924 98.7359C80.2962 98.7752 79.3663 98.4214 78.6441 97.7335L45.7063 66.5032C43.1858 64.1128 39.2048 64.2185 36.8157 66.739C34.4253 69.2596 34.531 73.2406 37.0515 75.6297L69.9831 106.855C73.0245 109.747 76.9588 111.316 81.1278 111.316C81.3513 111.316 81.5749 111.312 81.7984 111.303C86.2143 111.125 90.2703 109.214 93.2183 105.92C93.2932 105.838 93.3644 105.753 93.4344 105.666L159.798 23.1221C161.974 20.4149 161.544 16.456 158.837 14.2806C156.131 12.104 152.171 12.5339 149.994 15.2412L83.7613 97.6242C83.1103 98.3035 82.2382 98.6978 81.2924 98.7359Z" fill="#00263A"/>
</g>
<defs>
<clipPath id="clip0_1_12988">
<rect width="161" height="161" fill="white" transform="translate(0.5)"/>
</clipPath>
</defs>
</svg>
