<svg width="150" height="150" viewBox="0 0 150 150" fill="none" xmlns="http://www.w3.org/2000/svg">
<g opacity="0.5">
<path d="M135.938 140.625H112.5C109.909 140.625 107.812 138.526 107.812 135.938V128.906C107.603 125.065 104.605 122.086 101.212 121.886C97.298 121.656 93.5817 125.165 93.75 129.654V135.938C93.75 138.526 91.6533 140.625 89.0625 140.625H60.9375C58.3467 140.625 56.25 138.526 56.25 135.938V128.906C56.04 125.065 53.0428 122.086 49.6491 121.886C45.7355 121.656 42.0192 125.165 42.1875 129.655V135.938C42.1875 138.526 40.0908 140.625 37.5 140.625H14.0625C11.4717 140.625 9.375 138.526 9.375 135.938V17.8116C9.375 10.5745 15.262 4.6875 22.4991 4.6875H127.501C134.738 4.6875 140.625 10.5745 140.625 17.8116V135.938C140.625 138.526 138.528 140.625 135.938 140.625ZM117.188 131.25H131.25V17.8116C131.25 15.7448 129.57 14.0625 127.501 14.0625H22.4991C20.43 14.0625 18.75 15.7448 18.75 17.8116V131.25H32.8125V129.655C32.7905 119.717 41.1539 111.998 50.212 112.53C58.3491 113.008 65.302 120.041 65.625 128.906V131.25H84.375V129.655C84.353 119.717 92.7164 111.998 101.775 112.53C109.912 113.008 116.865 120.041 117.188 128.906V131.25Z" fill="#7FCE7A"/>
<path d="M86.4623 92.9625C84.323 91.5361 83.7361 88.6017 85.1625 86.4623L89.6803 79.6875H51.5625C48.9909 79.6875 46.875 77.5716 46.875 75C46.875 72.4284 48.9909 70.3125 51.5625 70.3125H98.4375C100.168 70.3125 101.756 71.2645 102.571 72.7889C103.386 74.3133 103.294 76.1625 102.338 77.6002L92.9625 91.6627C91.5361 93.802 88.6017 94.3889 86.4623 92.9625Z" fill="#7FCE7A"/>
<path d="M98.4375 60.9373H51.5626C49.8324 60.9373 48.2438 59.9853 47.4291 58.4609C46.6144 56.9365 46.7058 55.0873 47.6626 53.6496L57.0376 39.5871C58.4705 37.4309 61.3726 36.8449 63.5377 38.2873C65.694 39.7226 66.2752 42.6335 64.8376 44.7874L60.3197 51.5623H98.4375C101.028 51.5623 103.125 53.6613 103.125 56.2498C103.125 58.8382 101.028 60.9373 98.4375 60.9373Z" fill="#7FCE7A"/>
</g>
</svg>
