<svg width="30" height="30" viewBox="0 0 30 30" fill="none" xmlns="http://www.w3.org/2000/svg">
<path d="M15.0034 0C6.71478 0 0 6.71478 0 14.9966C0 23.2783 6.71478 30 15.0034 30C23.2921 30 30 23.2852 30 14.9966C30 6.7079 23.2852 0 15.0034 0ZM18.7973 9.42268H18.5704C18.0206 9.42268 17.4777 9.40893 16.9347 9.42955C16.1856 9.45704 15.6289 9.73883 15.6014 10.6735C15.5876 11.354 15.5739 12.9278 15.5739 12.9278C15.5739 12.9278 17.3333 12.9347 18.0962 12.9278H18.701C18.5636 14.0137 18.4261 15.0584 18.2887 16.11H15.6014V24.0687H12.3024V16.1031H9.60137V12.9278H12.3162V12.6942C12.3162 12.055 12.3024 11.4158 12.3162 10.7835C12.3299 10.378 12.3436 9.96564 12.4192 9.56014C12.5842 8.59794 13.0309 7.78007 13.8419 7.19588C14.5498 6.68728 15.3608 6.4811 16.2131 6.46048C16.7766 6.44673 17.3333 6.47423 17.89 6.50172C18.1993 6.51546 18.5017 6.5567 18.7973 6.58419V9.42268Z" fill="white"/>
</svg>
