<svg width="30" height="30" viewBox="0 0 30 30" fill="none" xmlns="http://www.w3.org/2000/svg">
<path d="M15.1821 12.3918C13.7251 12.378 12.5361 13.5464 12.5223 15.0034C12.5086 16.4605 13.677 17.6495 15.134 17.6632C16.5911 17.677 17.7801 16.5086 17.7938 15.0515C17.8076 13.5945 16.6323 12.4055 15.1821 12.3918ZM15.1821 12.3918C13.7251 12.378 12.5361 13.5464 12.5223 15.0034C12.5086 16.4605 13.677 17.6495 15.134 17.6632C16.5911 17.677 17.7801 16.5086 17.7938 15.0515C17.8076 13.5945 16.6323 12.4055 15.1821 12.3918ZM21.5464 11.2096C21.3952 9.81443 20.5361 8.8866 19.1478 8.67354C17.8007 8.46735 12.7354 8.48797 11.3265 8.64605C9.93815 8.79725 9.01719 9.65636 8.811 11.0309C8.59107 12.4948 8.63231 17.9588 8.811 19.0515C9.00344 20.1993 9.64948 20.9828 10.7904 21.299C11.9794 21.6289 17.7045 21.5533 18.9828 21.4089C20.378 21.2577 21.299 20.3986 21.512 19.0103C21.7251 17.6082 21.6907 12.5155 21.5464 11.2096ZM15.1546 19.1065C12.9072 19.1065 11.0859 17.2784 11.0859 15.0309C11.0859 12.7835 12.9141 10.9553 15.1615 10.9553C17.4089 10.9553 19.2371 12.7835 19.2302 15.0309C19.2302 17.2852 17.4089 19.1065 15.1546 19.1065ZM19.3952 11.7526C18.866 11.7526 18.4399 11.3265 18.4399 10.7973C18.4399 10.268 18.8728 9.84192 19.3952 9.8488C19.9244 9.8488 20.3505 10.2749 20.3505 10.8041C20.3436 11.3265 19.9175 11.7526 19.3952 11.7526ZM15.1821 12.3918C13.7251 12.378 12.5361 13.5464 12.5223 15.0034C12.5086 16.4605 13.677 17.6495 15.134 17.6632C16.5911 17.677 17.7801 16.5086 17.7938 15.0515C17.8076 13.5945 16.6323 12.4055 15.1821 12.3918ZM15.1821 12.3918C13.7251 12.378 12.5361 13.5464 12.5223 15.0034C12.5086 16.4605 13.677 17.6495 15.134 17.6632C16.5911 17.677 17.7801 16.5086 17.7938 15.0515C17.8076 13.5945 16.6323 12.4055 15.1821 12.3918ZM15.1821 12.3918C13.7251 12.378 12.5361 13.5464 12.5223 15.0034C12.5086 16.4605 13.677 17.6495 15.134 17.6632C16.5911 17.677 17.7801 16.5086 17.7938 15.0515C17.8076 13.5945 16.6323 12.4055 15.1821 12.3918ZM15.1821 12.3918C13.7251 12.378 12.5361 13.5464 12.5223 15.0034C12.5086 16.4605 13.677 17.6495 15.134 17.6632C16.5911 17.677 17.7801 16.5086 17.7938 15.0515C17.8076 13.5945 16.6323 12.4055 15.1821 12.3918ZM15.1821 12.3918C13.7251 12.378 12.5361 13.5464 12.5223 15.0034C12.5086 16.4605 13.677 17.6495 15.134 17.6632C16.5911 17.677 17.7801 16.5086 17.7938 15.0515C17.8076 13.5945 16.6323 12.4055 15.1821 12.3918ZM21.5464 11.2096C21.3952 9.81443 20.5361 8.8866 19.1478 8.67354C17.8007 8.46735 12.7354 8.48797 11.3265 8.64605C9.93815 8.79725 9.01719 9.65636 8.811 11.0309C8.59107 12.4948 8.63231 17.9588 8.811 19.0515C9.00344 20.1993 9.64948 20.9828 10.7904 21.299C11.9794 21.6289 17.7045 21.5533 18.9828 21.4089C20.378 21.2577 21.299 20.3986 21.512 19.0103C21.7251 17.6082 21.6907 12.5155 21.5464 11.2096ZM15.1546 19.1065C12.9072 19.1065 11.0859 17.2784 11.0859 15.0309C11.0859 12.7835 12.9141 10.9553 15.1615 10.9553C17.4089 10.9553 19.2371 12.7835 19.2302 15.0309C19.2302 17.2852 17.4089 19.1065 15.1546 19.1065ZM19.3952 11.7526C18.866 11.7526 18.4399 11.3265 18.4399 10.7973C18.4399 10.268 18.8728 9.84192 19.3952 9.8488C19.9244 9.8488 20.3505 10.2749 20.3505 10.8041C20.3436 11.3265 19.9175 11.7526 19.3952 11.7526ZM15.1821 12.3918C13.7251 12.378 12.5361 13.5464 12.5223 15.0034C12.5086 16.4605 13.677 17.6495 15.134 17.6632C16.5911 17.677 17.7801 16.5086 17.7938 15.0515C17.8076 13.5945 16.6323 12.4055 15.1821 12.3918ZM15.1821 12.3918C13.7251 12.378 12.5361 13.5464 12.5223 15.0034C12.5086 16.4605 13.677 17.6495 15.134 17.6632C16.5911 17.677 17.7801 16.5086 17.7938 15.0515C17.8076 13.5945 16.6323 12.4055 15.1821 12.3918ZM15.1821 12.3918C13.7251 12.378 12.5361 13.5464 12.5223 15.0034C12.5086 16.4605 13.677 17.6495 15.134 17.6632C16.5911 17.677 17.7801 16.5086 17.7938 15.0515C17.8076 13.5945 16.6323 12.4055 15.1821 12.3918ZM15.1821 12.3918C13.7251 12.378 12.5361 13.5464 12.5223 15.0034C12.5086 16.4605 13.677 17.6495 15.134 17.6632C16.5911 17.677 17.7801 16.5086 17.7938 15.0515C17.8076 13.5945 16.6323 12.4055 15.1821 12.3918ZM15.1821 12.3918C13.7251 12.378 12.5361 13.5464 12.5223 15.0034C12.5086 16.4605 13.677 17.6495 15.134 17.6632C16.5911 17.677 17.7801 16.5086 17.7938 15.0515C17.8076 13.5945 16.6323 12.4055 15.1821 12.3918ZM21.5464 11.2096C21.3952 9.81443 20.5361 8.8866 19.1478 8.67354C17.8007 8.46735 12.7354 8.48797 11.3265 8.64605C9.93815 8.79725 9.01719 9.65636 8.811 11.0309C8.59107 12.4948 8.63231 17.9588 8.811 19.0515C9.00344 20.1993 9.64948 20.9828 10.7904 21.299C11.9794 21.6289 17.7045 21.5533 18.9828 21.4089C20.378 21.2577 21.299 20.3986 21.512 19.0103C21.7251 17.6082 21.6907 12.5155 21.5464 11.2096ZM15.1546 19.1065C12.9072 19.1065 11.0859 17.2784 11.0859 15.0309C11.0859 12.7835 12.9141 10.9553 15.1615 10.9553C17.4089 10.9553 19.2371 12.7835 19.2302 15.0309C19.2302 17.2852 17.4089 19.1065 15.1546 19.1065ZM19.3952 11.7526C18.866 11.7526 18.4399 11.3265 18.4399 10.7973C18.4399 10.268 18.8728 9.84192 19.3952 9.8488C19.9244 9.8488 20.3505 10.2749 20.3505 10.8041C20.3436 11.3265 19.9175 11.7526 19.3952 11.7526ZM15.1821 12.3918C13.7251 12.378 12.5361 13.5464 12.5223 15.0034C12.5086 16.4605 13.677 17.6495 15.134 17.6632C16.5911 17.677 17.7801 16.5086 17.7938 15.0515C17.8076 13.5945 16.6323 12.4055 15.1821 12.3918ZM21.5464 11.2096C21.3952 9.81443 20.5361 8.8866 19.1478 8.67354C17.8007 8.46735 12.7354 8.48797 11.3265 8.64605C9.93815 8.79725 9.01719 9.65636 8.811 11.0309C8.59107 12.4948 8.63231 17.9588 8.811 19.0515C9.00344 20.1993 9.64948 20.9828 10.7904 21.299C11.9794 21.6289 17.7045 21.5533 18.9828 21.4089C20.378 21.2577 21.299 20.3986 21.512 19.0103C21.7251 17.6082 21.6907 12.5155 21.5464 11.2096ZM15.1546 19.1065C12.9072 19.1065 11.0859 17.2784 11.0859 15.0309C11.0859 12.7835 12.9141 10.9553 15.1615 10.9553C17.4089 10.9553 19.2371 12.7835 19.2302 15.0309C19.2302 17.2852 17.4089 19.1065 15.1546 19.1065ZM19.3952 11.7526C18.866 11.7526 18.4399 11.3265 18.4399 10.7973C18.4399 10.268 18.8728 9.84192 19.3952 9.8488C19.9244 9.8488 20.3505 10.2749 20.3505 10.8041C20.3436 11.3265 19.9175 11.7526 19.3952 11.7526ZM15.1821 12.3918C13.7251 12.378 12.5361 13.5464 12.5223 15.0034C12.5086 16.4605 13.677 17.6495 15.134 17.6632C16.5911 17.677 17.7801 16.5086 17.7938 15.0515C17.8076 13.5945 16.6323 12.4055 15.1821 12.3918ZM15.0034 0C6.71478 0 0 6.71478 0 14.9966C0 23.2783 6.71478 30 15.0034 30C23.2921 30 30 23.2852 30 14.9966C30 6.7079 23.2852 0 15.0034 0ZM22.866 19.6151C22.3918 21.4227 21.2165 22.5017 19.3883 22.7972C18.0069 23.0172 11.8419 23.0584 10.5911 22.7354C8.77663 22.268 7.6976 21.0997 7.39519 19.2715C7.17526 17.9313 7.09966 11.7045 7.47766 10.3505C7.97251 8.59107 9.14089 7.55326 10.921 7.2646C12.4742 7.01031 16.9072 7.07216 18.7766 7.17526C19.8763 7.23711 20.8728 7.58076 21.6907 8.35739C22.4673 9.09966 22.866 10.0275 22.9759 11.0722C23.0997 12.323 23.2302 18.2268 22.866 19.6151ZM19.1478 8.67354C17.8007 8.46735 12.7354 8.48797 11.3265 8.64605C9.93815 8.79725 9.01719 9.65636 8.811 11.0309C8.59107 12.4948 8.63231 17.9588 8.811 19.0515C9.00344 20.1993 9.64948 20.9828 10.7904 21.299C11.9794 21.6289 17.7045 21.5533 18.9828 21.4089C20.378 21.2577 21.299 20.3986 21.512 19.0103C21.7251 17.6082 21.6907 12.5155 21.5464 11.2096C21.3952 9.81443 20.5361 8.8866 19.1478 8.67354ZM15.1546 19.1065C12.9072 19.1065 11.0859 17.2784 11.0859 15.0309C11.0859 12.7835 12.9141 10.9553 15.1615 10.9553C17.4089 10.9553 19.2371 12.7835 19.2302 15.0309C19.2302 17.2852 17.4089 19.1065 15.1546 19.1065ZM19.3952 11.7526C18.866 11.7526 18.4399 11.3265 18.4399 10.7973C18.4399 10.268 18.8728 9.84192 19.3952 9.8488C19.9244 9.8488 20.3505 10.2749 20.3505 10.8041C20.3436 11.3265 19.9175 11.7526 19.3952 11.7526ZM15.1821 12.3918C13.7251 12.378 12.5361 13.5464 12.5223 15.0034C12.5086 16.4605 13.677 17.6495 15.134 17.6632C16.5911 17.677 17.7801 16.5086 17.7938 15.0515C17.8076 13.5945 16.6323 12.4055 15.1821 12.3918ZM15.1821 12.3918C13.7251 12.378 12.5361 13.5464 12.5223 15.0034C12.5086 16.4605 13.677 17.6495 15.134 17.6632C16.5911 17.677 17.7801 16.5086 17.7938 15.0515C17.8076 13.5945 16.6323 12.4055 15.1821 12.3918ZM15.1821 12.3918C13.7251 12.378 12.5361 13.5464 12.5223 15.0034C12.5086 16.4605 13.677 17.6495 15.134 17.6632C16.5911 17.677 17.7801 16.5086 17.7938 15.0515C17.8076 13.5945 16.6323 12.4055 15.1821 12.3918ZM21.5464 11.2096C21.3952 9.81443 20.5361 8.8866 19.1478 8.67354C17.8007 8.46735 12.7354 8.48797 11.3265 8.64605C9.93815 8.79725 9.01719 9.65636 8.811 11.0309C8.59107 12.4948 8.63231 17.9588 8.811 19.0515C9.00344 20.1993 9.64948 20.9828 10.7904 21.299C11.9794 21.6289 17.7045 21.5533 18.9828 21.4089C20.378 21.2577 21.299 20.3986 21.512 19.0103C21.7251 17.6082 21.6907 12.5155 21.5464 11.2096ZM15.1546 19.1065C12.9072 19.1065 11.0859 17.2784 11.0859 15.0309C11.0859 12.7835 12.9141 10.9553 15.1615 10.9553C17.4089 10.9553 19.2371 12.7835 19.2302 15.0309C19.2302 17.2852 17.4089 19.1065 15.1546 19.1065ZM19.3952 11.7526C18.866 11.7526 18.4399 11.3265 18.4399 10.7973C18.4399 10.268 18.8728 9.84192 19.3952 9.8488C19.9244 9.8488 20.3505 10.2749 20.3505 10.8041C20.3436 11.3265 19.9175 11.7526 19.3952 11.7526ZM15.1821 12.3918C13.7251 12.378 12.5361 13.5464 12.5223 15.0034C12.5086 16.4605 13.677 17.6495 15.134 17.6632C16.5911 17.677 17.7801 16.5086 17.7938 15.0515C17.8076 13.5945 16.6323 12.4055 15.1821 12.3918ZM15.1821 12.3918C13.7251 12.378 12.5361 13.5464 12.5223 15.0034C12.5086 16.4605 13.677 17.6495 15.134 17.6632C16.5911 17.677 17.7801 16.5086 17.7938 15.0515C17.8076 13.5945 16.6323 12.4055 15.1821 12.3918ZM15.1821 12.3918C13.7251 12.378 12.5361 13.5464 12.5223 15.0034C12.5086 16.4605 13.677 17.6495 15.134 17.6632C16.5911 17.677 17.7801 16.5086 17.7938 15.0515C17.8076 13.5945 16.6323 12.4055 15.1821 12.3918ZM21.5464 11.2096C21.3952 9.81443 20.5361 8.8866 19.1478 8.67354C17.8007 8.46735 12.7354 8.48797 11.3265 8.64605C9.93815 8.79725 9.01719 9.65636 8.811 11.0309C8.59107 12.4948 8.63231 17.9588 8.811 19.0515C9.00344 20.1993 9.64948 20.9828 10.7904 21.299C11.9794 21.6289 17.7045 21.5533 18.9828 21.4089C20.378 21.2577 21.299 20.3986 21.512 19.0103C21.7251 17.6082 21.6907 12.5155 21.5464 11.2096ZM15.1546 19.1065C12.9072 19.1065 11.0859 17.2784 11.0859 15.0309C11.0859 12.7835 12.9141 10.9553 15.1615 10.9553C17.4089 10.9553 19.2371 12.7835 19.2302 15.0309C19.2302 17.2852 17.4089 19.1065 15.1546 19.1065ZM19.3952 11.7526C18.866 11.7526 18.4399 11.3265 18.4399 10.7973C18.4399 10.268 18.8728 9.84192 19.3952 9.8488C19.9244 9.8488 20.3505 10.2749 20.3505 10.8041C20.3436 11.3265 19.9175 11.7526 19.3952 11.7526ZM15.1821 12.3918C13.7251 12.378 12.5361 13.5464 12.5223 15.0034C12.5086 16.4605 13.677 17.6495 15.134 17.6632C16.5911 17.677 17.7801 16.5086 17.7938 15.0515C17.8076 13.5945 16.6323 12.4055 15.1821 12.3918ZM15.1821 12.3918C13.7251 12.378 12.5361 13.5464 12.5223 15.0034C12.5086 16.4605 13.677 17.6495 15.134 17.6632C16.5911 17.677 17.7801 16.5086 17.7938 15.0515C17.8076 13.5945 16.6323 12.4055 15.1821 12.3918ZM15.1821 12.3918C13.7251 12.378 12.5361 13.5464 12.5223 15.0034C12.5086 16.4605 13.677 17.6495 15.134 17.6632C16.5911 17.677 17.7801 16.5086 17.7938 15.0515C17.8076 13.5945 16.6323 12.4055 15.1821 12.3918Z" fill="white"/>
</svg>
