<svg xmlns="http://www.w3.org/2000/svg" width="48" height="35" viewBox="0 0 48 35" fill="none">
  <g clip-path="url(#clip0_1_10537)">
    <path d="M46.162 14.4301C43.435 10.6393 39.9289 9.83871 37.8785 9.72098H37.5299C37.0788 9.72098 36.6277 9.72098 36.1972 9.76807C36.1972 9.76807 36.1972 9.76807 36.1767 9.76807C33.1831 10.0271 30.7636 11.2044 28.9798 13.2764C25.6377 17.1379 25.5146 22.9536 25.5146 23.4481V34.3497C25.5146 9.72098 48.0074 17.7971 48.0074 17.7971C47.4538 16.6199 46.8387 15.5132 46.1825 14.4301H46.162Z" fill="#4F9D5D"/>
    <path d="M37.5092 6.09497H39.457C35.1307 2.7044 29.9022 0.726562 24.2637 0.726562C18.6251 0.726562 13.3966 2.7044 9.07031 6.09497H11.0182C15.3445 6.09497 18.8096 7.57835 21.3316 10.498C22.7259 12.1227 23.6486 13.9592 24.2637 15.7487C24.8788 13.9828 25.8015 12.1227 27.1957 10.498C29.7177 7.57835 33.1828 6.09497 37.5092 6.09497Z" fill="#7FCE7A"/>
    <path d="M12.3307 9.7681C12.3307 9.7681 12.3307 9.7681 12.3102 9.7681C11.8796 9.72101 11.4286 9.72101 10.9775 9.72101H10.6289C8.57852 9.83874 5.07236 10.6393 2.34535 14.4301C1.66872 15.4897 1.05361 16.6199 0.520508 17.7972C0.520508 17.7972 23.0132 9.72101 23.0132 34.3498V23.4481C23.0132 22.9537 22.8902 17.1379 19.5481 13.2764C17.7643 11.2279 15.3448 10.0506 12.3512 9.7681H12.3307Z" fill="#4F9D5D"/>
  </g>
  <defs>
    <clipPath id="clip0_1_10537">
      <rect width="47.4049" height="33.6232" fill="white" transform="translate(0.5 0.726562)"/>
    </clipPath>
  </defs>
</svg>