<svg width="20" height="13" viewBox="0 0 20 13" fill="none" xmlns="http://www.w3.org/2000/svg">
<path id="Vector" d="M18.2206 0.700928H4.44571C3.46788 0.700928 2.66629 1.50252 2.66629 2.48035V3.1455C2.66629 3.38996 2.86526 3.58893 3.10972 3.58893C3.35418 3.58893 3.55315 3.38996 3.55315 3.1455V2.48035C3.55315 2.38939 3.5759 2.30411 3.59864 2.21315L8.57305 6.47694L3.59864 10.7407C3.5759 10.6498 3.55315 10.5645 3.55315 10.4735V9.80838C3.55315 9.56392 3.35418 9.36494 3.10972 9.36494C2.86526 9.36494 2.66629 9.56392 2.66629 9.80838V10.4735C2.66629 11.4514 3.46788 12.2529 4.44571 12.2529H18.2206C19.1984 12.2529 20 11.4514 20 10.4735V2.48035C20 1.50252 19.1984 0.700928 18.2206 0.700928ZM4.26379 1.61054C4.30927 1.5878 4.37749 1.5878 4.44002 1.5878H18.2149C18.2831 1.5878 18.3456 1.5878 18.3911 1.61054L11.6146 7.40929C11.4383 7.54004 11.2166 7.54004 11.0347 7.40929L4.26379 1.61054ZM18.2149 11.3661H4.44571C4.37749 11.3661 4.31495 11.3661 4.26947 11.3433L9.26663 7.05681L10.4662 8.10286C10.7106 8.32458 11.0233 8.43828 11.3303 8.43828C11.6373 8.43828 11.95 8.32458 12.1944 8.10286L13.394 7.05681L18.3911 11.3433C18.3456 11.3661 18.2774 11.3661 18.2149 11.3661ZM19.1018 10.4792C19.1018 10.5702 19.079 10.6555 19.0563 10.7464L14.0819 6.48262L19.0563 2.21884C19.079 2.3098 19.1018 2.39507 19.1018 2.48603V10.4849V10.4792ZM1.3303 5.36835C1.3303 5.1239 1.52928 4.92492 1.77373 4.92492H4.44002C4.68448 4.92492 4.88346 5.1239 4.88346 5.36835C4.88346 5.61281 4.68448 5.81179 4.44002 5.81179H1.77942C1.53496 5.81179 1.33599 5.61281 1.33599 5.36835H1.3303ZM4.44002 8.03464H0.443434C0.198977 8.03464 0 7.83567 0 7.59121C0 7.34675 0.198977 7.14778 0.443434 7.14778H4.44002C4.68448 7.14778 4.88346 7.34675 4.88346 7.59121C4.88346 7.83567 4.68448 8.03464 4.44002 8.03464Z" fill="#137054"/>
</svg>
