<svg width="40" height="40" viewBox="0 0 40 40" fill="none" xmlns="http://www.w3.org/2000/svg">
<g id="Mobile Menu icon">
<rect id="Rectangle 4287" width="40" height="40" rx="5" fill="#137054"/>
<path id="menu-Bold" d="M9.09082 12.0455C9.09078 11.8963 9.12131 11.7485 9.18069 11.6106C9.24006 11.4727 9.32711 11.3474 9.43686 11.2419C9.54661 11.1364 9.67691 11.0527 9.82031 10.9956C9.96371 10.9385 10.1174 10.9091 10.2726 10.9091H25.6363C25.7921 10.9081 25.9467 10.9368 26.091 10.9934C26.2353 11.0501 26.3666 11.1336 26.4772 11.2392C26.5878 11.3448 26.6756 11.4705 26.7355 11.6088C26.7954 11.7472 26.8262 11.8956 26.8262 12.0455C26.8262 12.1954 26.7954 12.3438 26.7355 12.4822C26.6756 12.6206 26.5878 12.7462 26.4772 12.8518C26.3666 12.9574 26.2353 13.041 26.091 13.0976C25.9467 13.1543 25.7921 13.1829 25.6363 13.1819H10.2726C10.1174 13.1819 9.96372 13.1525 9.82032 13.0955C9.67692 13.0384 9.54663 12.9547 9.43688 12.8491C9.32713 12.7436 9.24008 12.6183 9.18071 12.4804C9.12133 12.3426 9.09078 12.1948 9.09082 12.0455ZM31.5454 18.8637H10.2726C9.95919 18.8637 9.65859 18.9834 9.43696 19.1965C9.21533 19.4096 9.09082 19.6987 9.09082 20C9.09082 20.3014 9.21533 20.5905 9.43696 20.8036C9.65859 21.0167 9.95919 21.1364 10.2726 21.1364H31.5454C31.8588 21.1364 32.1594 21.0167 32.381 20.8036C32.6027 20.5905 32.7272 20.3014 32.7272 20C32.7272 19.6987 32.6027 19.4096 32.381 19.1965C32.1594 18.9834 31.8588 18.8637 31.5454 18.8637ZM20.909 26.8182H10.2726C9.96058 26.8203 9.66205 26.9409 9.44216 27.1538C9.22227 27.3667 9.09886 27.6545 9.09886 27.9546C9.09886 28.2546 9.22227 28.5425 9.44216 28.7554C9.66205 28.9683 9.96058 29.0889 10.2726 29.0909H20.909C21.221 29.0889 21.5196 28.9683 21.7395 28.7554C21.9594 28.5425 22.0828 28.2546 22.0828 27.9546C22.0828 27.6545 21.9594 27.3667 21.7395 27.1538C21.5196 26.9409 21.221 26.8203 20.909 26.8182Z" fill="#EFFFEE"/>
</g>
</svg>
