<svg xmlns="http://www.w3.org/2000/svg" width="93" height="38" viewBox="0 0 93 38" fill="none">
  <g clip-path="url(#clip0_1_10498)">
    <path d="M1.24965 37.146C1.18965 37.146 1.11965 37.146 1.05965 37.126C0.659647 37.016 0.419647 36.606 0.529647 36.206C0.789647 35.216 1.09965 34.226 1.43965 33.286C1.57965 32.896 2.00965 32.696 2.39965 32.836C2.78965 32.976 2.98965 33.406 2.84965 33.796C2.52965 34.696 2.22965 35.646 1.97965 36.596C1.88965 36.936 1.58965 37.156 1.25965 37.156L1.24965 37.146ZM4.65965 28.856C4.52965 28.856 4.39965 28.826 4.27965 28.756C3.91965 28.546 3.79965 28.086 4.00965 27.726C4.51965 26.846 5.07965 25.986 5.66965 25.156C5.90965 24.816 6.37965 24.736 6.71965 24.986C7.05965 25.226 7.13965 25.696 6.88965 26.036C6.32965 26.826 5.78965 27.656 5.29965 28.496C5.15965 28.736 4.90965 28.866 4.64965 28.866L4.65965 28.856ZM10.1996 21.816C9.99965 21.816 9.80965 21.736 9.65965 21.586C9.36965 21.286 9.37965 20.816 9.67965 20.526C10.3996 19.826 11.1696 19.146 11.9696 18.496C12.2896 18.236 12.7596 18.286 13.0296 18.606C13.2896 18.926 13.2396 19.396 12.9196 19.666C12.1496 20.296 11.4196 20.946 10.7296 21.616C10.5796 21.756 10.3996 21.826 10.2096 21.826L10.1996 21.816ZM17.3596 16.406C17.0996 16.406 16.8596 16.276 16.7096 16.036C16.4996 15.676 16.6196 15.216 16.9696 15.006C17.8196 14.496 18.7196 14.006 19.6396 13.536C20.0096 13.346 20.4596 13.496 20.6496 13.866C20.8396 14.236 20.6896 14.686 20.3196 14.876C19.4296 15.326 18.5596 15.806 17.7396 16.296C17.6196 16.366 17.4896 16.406 17.3596 16.406ZM25.4796 12.546C25.1796 12.546 24.8896 12.356 24.7796 12.056C24.6296 11.666 24.8296 11.236 25.2196 11.086C26.1496 10.736 27.1096 10.396 28.0796 10.086C28.4696 9.95601 28.8996 10.176 29.0196 10.566C29.1496 10.956 28.9296 11.386 28.5396 11.506C27.5896 11.816 26.6496 12.146 25.7396 12.486C25.6496 12.516 25.5596 12.536 25.4796 12.536V12.546ZM34.0896 9.94601C33.7496 9.94601 33.4397 9.71601 33.3596 9.36601C33.2597 8.96601 33.5096 8.55601 33.9196 8.46601C34.8996 8.23601 35.8896 8.02601 36.8797 7.82601C37.2797 7.74601 37.6796 8.00601 37.7596 8.41601C37.8396 8.82601 37.5796 9.21601 37.1696 9.29601C36.1896 9.48601 35.2196 9.69601 34.2596 9.92601C34.1996 9.93601 34.1396 9.94601 34.0896 9.94601ZM81.8596 8.53601C81.8596 8.53601 81.7996 8.53601 81.7696 8.53601C80.8296 8.42601 79.8397 8.31601 78.7997 8.20601C78.3896 8.16601 78.0896 7.79601 78.1296 7.38601C78.1696 6.97601 78.5496 6.67601 78.9496 6.71601C79.9896 6.82601 80.9897 6.93601 81.9397 7.04601C82.3497 7.09601 82.6497 7.46601 82.5996 7.87601C82.5596 8.25601 82.2297 8.53601 81.8596 8.53601ZM42.9396 8.32601C42.5696 8.32601 42.2496 8.05601 42.1996 7.67601C42.1396 7.26601 42.4296 6.88601 42.8396 6.83601C43.8396 6.69601 44.8396 6.57601 45.8396 6.47601C46.2496 6.43601 46.6196 6.72601 46.6696 7.14601C46.7096 7.55601 46.4196 7.92601 45.9996 7.97601C45.0096 8.08601 44.0297 8.20601 43.0396 8.33601C43.0097 8.33601 42.9696 8.33601 42.9396 8.33601V8.32601ZM72.8896 7.68601C72.8896 7.68601 72.8496 7.68601 72.8396 7.68601C71.8696 7.61601 70.8697 7.55601 69.8596 7.49601C69.4496 7.47601 69.1297 7.11601 69.1497 6.70601C69.1696 6.29601 69.5197 5.97601 69.9397 5.99601C70.9596 6.05601 71.9696 6.11601 72.9496 6.18601C73.3596 6.21601 73.6696 6.57601 73.6396 6.98601C73.6096 7.38601 73.2796 7.68601 72.8896 7.68601ZM51.8997 7.47601C51.5097 7.47601 51.1796 7.16601 51.1497 6.76601C51.1297 6.35601 51.4396 5.99601 51.8496 5.97601C52.8596 5.91601 53.8596 5.86601 54.8596 5.83601C55.2796 5.80601 55.6196 6.14601 55.6396 6.55601C55.6596 6.96601 55.3296 7.31601 54.9196 7.33601C53.9296 7.37601 52.9396 7.41601 51.9396 7.47601C51.9296 7.47601 51.9096 7.47601 51.8997 7.47601ZM63.8797 7.26601C62.8997 7.24601 61.8996 7.23601 60.8896 7.22601C60.4796 7.22601 60.1396 6.88601 60.1396 6.47601C60.1396 6.06601 60.4796 5.72601 60.8896 5.72601C61.9096 5.72601 62.9096 5.74601 63.8997 5.76601C64.3097 5.76601 64.6396 6.11601 64.6296 6.53601C64.6296 6.94601 64.2896 7.26601 63.8797 7.26601Z" fill="#7FCE7A"/>
    <path d="M80.7401 0.145996L92.5001 9.376L78.6201 14.956L80.7401 0.145996Z" fill="#7FCE7A"/>
  </g>
  <defs>
    <clipPath id="clip0_1_10498">
      <rect width="92" height="37" fill="white" transform="translate(0.5 0.145996)"/>
    </clipPath>
  </defs>
</svg>