<svg width="14" height="15" viewBox="0 0 14 15" fill="none" xmlns="http://www.w3.org/2000/svg">
<path id="Vector" d="M13.6314 10.7608L11.6714 8.80087C10.9727 8.10215 9.78253 8.38046 9.50423 9.29234C9.29698 9.92 8.59234 10.2694 7.96468 10.1332C6.56725 9.78381 4.67834 7.96596 4.32898 6.49747C4.12174 5.86981 4.53623 5.1711 5.16981 4.95793C6.0817 4.67963 6.36 3.48944 5.66128 2.79072L3.70132 0.830761C3.14472 0.339291 2.30389 0.339291 1.81834 0.830761L0.486041 2.15714C-0.840337 3.55457 0.628153 7.26133 3.91449 10.5477C7.20083 13.834 10.9076 15.3735 12.305 13.9761L13.6314 12.6497C14.1229 12.0931 14.1229 11.2523 13.6314 10.7608Z" fill="#137054"/>
</svg>
