<svg width="14" height="21" viewBox="0 0 14 21" fill="none" xmlns="http://www.w3.org/2000/svg">
<path id="Vector" d="M7.00849 0.37793C3.13762 0.37793 0 3.51555 0 7.38642C0 8.84439 0.494516 9.97837 1.20219 11.317C3.20583 15.5289 6.99997 20.5764 6.99997 20.5764C6.99997 20.5764 10.7941 15.5204 12.7977 11.317C13.6163 9.70553 13.9999 8.84439 13.9999 7.38642C14.017 3.51555 10.8794 0.37793 7.00849 0.37793ZM7.00849 11.2317C4.88548 11.2317 3.1632 9.50943 3.1632 7.38642C3.1632 5.26341 4.88548 3.54113 7.00849 3.54113C9.1315 3.54113 10.8538 5.26341 10.8538 7.38642C10.8538 9.50943 9.1315 11.2317 7.00849 11.2317Z" fill="#137054"/>
</svg>
