<svg xmlns="http://www.w3.org/2000/svg" width="52" height="53" viewBox="0 0 52 53" fill="none">
  <path d="M26.0004 1.18408C20.9934 1.18408 16.0988 2.66883 11.9357 5.45056C7.77251 8.2323 4.52772 12.1861 2.61163 16.8119C0.695539 21.4378 0.194202 26.528 1.17102 31.4387C2.14783 36.3495 4.55893 40.8604 8.09941 44.4008C11.6399 47.9413 16.1507 50.3524 21.0615 51.3292C25.9723 52.306 31.0625 51.8047 35.6883 49.8886C40.3142 47.9725 44.2679 44.7277 47.0497 40.5646C49.8314 36.4014 51.3162 31.5069 51.3162 26.4999C51.3082 19.7882 48.6385 13.3536 43.8925 8.60771C39.1466 3.8618 32.7121 1.19205 26.0004 1.18408ZM41.3062 28.1173C41.1155 28.3081 40.8892 28.4594 40.6401 28.5626C40.391 28.6659 40.1239 28.719 39.8543 28.719C39.5846 28.719 39.3176 28.6659 39.0685 28.5626C38.8193 28.4594 38.593 28.3081 38.4024 28.1173L28.2473 17.9623V39.9939C28.2473 40.5383 28.0311 41.0604 27.6461 41.4453C27.2612 41.8302 26.7391 42.0465 26.1947 42.0465C25.6503 42.0465 25.1282 41.8302 24.7433 41.4453C24.3583 41.0604 24.1421 40.5383 24.1421 39.9939V17.9185L13.961 28.0996C13.5739 28.4735 13.0554 28.6804 12.5172 28.6757C11.979 28.671 11.4642 28.4551 11.0836 28.0746C10.703 27.694 10.4871 27.1792 10.4825 26.641C10.4778 26.1028 10.6847 25.5843 11.0586 25.1971L24.7209 11.5335C24.9115 11.3427 25.1379 11.1914 25.387 11.0882C25.6361 10.9849 25.9031 10.9318 26.1728 10.9318C26.4425 10.9318 26.7095 10.9849 26.9586 11.0882C27.2077 11.1914 27.4341 11.3427 27.6247 11.5335L41.3089 25.2177C41.6925 25.6028 41.9077 26.1245 41.9072 26.6681C41.9066 27.2117 41.6905 27.7329 41.3062 28.1173Z" fill="#4F9D5D"/>
</svg>