<svg width="30" height="30" viewBox="0 0 30 30" fill="none" xmlns="http://www.w3.org/2000/svg">
<path d="M13.0515 12.2818C14.6873 13.134 16.3093 13.9794 17.9519 14.8385C16.3093 15.6907 14.6873 16.5292 13.0515 17.3814V12.2818ZM30 15.0034C30 23.2852 23.2852 30 14.9965 30C6.70789 30 0 23.2852 0 15.0034C0 6.72165 6.71476 0 14.9965 0C23.2783 0 30 6.71478 30 15.0034ZM22.4605 10.9141C22.2405 10.3436 21.835 9.97251 21.2646 9.76632C20.2955 9.41581 11.89 9.37457 9.16838 9.6701C8.63917 9.72509 8.1993 9.96564 7.84879 10.3711C6.84535 11.5601 6.99655 17.5876 7.51888 19.0309C7.73881 19.622 8.13745 20.0137 8.73539 20.2062C10.0687 20.646 20.5154 20.6529 21.5258 20.1237C21.9038 19.9244 22.1993 19.6495 22.378 19.2577C23.0515 17.8282 23.0309 12.4055 22.4605 10.9141Z" fill="white"/>
</svg>
