<svg width="17" height="17" viewBox="0 0 17 17" fill="none" xmlns="http://www.w3.org/2000/svg">
<g clip-path="url(#clip0_1_13431)">
<path d="M16.2031 8.23438V14.6094C16.2031 15.0321 16.0352 15.4374 15.7363 15.7363C15.4374 16.0352 15.0321 16.2031 14.6094 16.2031H2.39062C1.96794 16.2031 1.56256 16.0352 1.26367 15.7363C0.964788 15.4374 0.796875 15.0321 0.796875 14.6094V2.39062C0.796875 1.96794 0.964788 1.56256 1.26367 1.26367C1.56256 0.964788 1.96794 0.796875 2.39062 0.796875H8.76562C8.97697 0.796875 9.17966 0.880831 9.3291 1.03027C9.47854 1.17972 9.5625 1.38241 9.5625 1.59375C9.5625 1.80509 9.47854 2.00778 9.3291 2.15723C9.17966 2.30667 8.97697 2.39062 8.76562 2.39062H2.92188C2.78111 2.39105 2.64623 2.44715 2.54669 2.54669C2.44715 2.64623 2.39105 2.78111 2.39062 2.92188V14.0781C2.39105 14.2189 2.44715 14.3538 2.54669 14.4533C2.64623 14.5528 2.78111 14.609 2.92188 14.6094H14.0781C14.2189 14.609 14.3538 14.5528 14.4533 14.4533C14.5528 14.3538 14.609 14.2189 14.6094 14.0781V8.23438C14.6094 8.02303 14.6933 7.82034 14.8428 7.6709C14.9922 7.52146 15.1949 7.4375 15.4062 7.4375C15.6176 7.4375 15.8203 7.52146 15.9697 7.6709C16.1192 7.82034 16.2031 8.02303 16.2031 8.23438Z" fill="#7FCE7A"/>
<path d="M16.2032 1.32812V5.04688C16.2032 5.25822 16.1192 5.46091 15.9698 5.61035C15.8203 5.75979 15.6176 5.84375 15.4063 5.84375C15.1949 5.84375 14.9923 5.75979 14.8428 5.61035C14.6934 5.46091 14.6094 5.25822 14.6094 5.04688V3.51688L9.81754 8.30875C9.66648 8.44951 9.46668 8.52614 9.26023 8.5225C9.05379 8.51886 8.85682 8.43522 8.71082 8.28922C8.56482 8.14322 8.48118 7.94625 8.47754 7.73981C8.4739 7.53336 8.55053 7.33356 8.69129 7.1825L13.4832 2.39062H11.9532C11.7418 2.39062 11.5391 2.30667 11.3897 2.15723C11.2402 2.00778 11.1563 1.80509 11.1563 1.59375C11.1563 1.38241 11.2402 1.17972 11.3897 1.03027C11.5391 0.880831 11.7418 0.796875 11.9532 0.796875H15.6719C15.8127 0.797295 15.9476 0.853401 16.0471 0.952939C16.1466 1.05248 16.2027 1.18736 16.2032 1.32812Z" fill="#7FCE7A"/>
</g>
<defs>
<clipPath id="clip0_1_13431">
<rect width="17" height="17" fill="white"/>
</clipPath>
</defs>
</svg>
