<svg width="43" height="43" viewBox="0 0 43 43" fill="none" xmlns="http://www.w3.org/2000/svg">
<g clip-path="url(#clip0_478_619)">
<path d="M21.5 43C33.3741 43 43 33.3741 43 21.5C43 9.62588 33.3741 0 21.5 0C9.62588 0 0 9.62588 0 21.5C0 33.3741 9.62588 43 21.5 43Z" fill="#3A559F"/>
<path d="M28.3115 18.9542L27.879 22.6996C27.8611 22.8705 27.781 23.0289 27.654 23.1446C27.527 23.2604 27.3619 23.3254 27.1901 23.3275H23.281L23.2614 34.4318C23.2628 34.5633 23.2122 34.6902 23.1208 34.7848C23.0294 34.8794 22.9044 34.9343 22.7728 34.9375H18.8124C18.7465 34.9376 18.6814 34.9243 18.6208 34.8985C18.5602 34.8728 18.5054 34.835 18.4598 34.7875C18.4141 34.7401 18.3786 34.6839 18.3552 34.6223C18.3318 34.5608 18.3211 34.4951 18.3238 34.4293V23.3275H15.3919C15.2999 23.3265 15.2089 23.3075 15.1242 23.2713C15.0395 23.2352 14.9627 23.1827 14.8983 23.117C14.8338 23.0512 14.783 22.9733 14.7486 22.8879C14.7143 22.8024 14.6971 22.7111 14.6981 22.619L14.6834 18.8736C14.6821 18.7812 14.699 18.6894 14.7332 18.6036C14.7674 18.5177 14.8181 18.4394 14.8826 18.3732C14.947 18.3069 15.0239 18.254 15.1087 18.2175C15.1936 18.1809 15.2849 18.1614 15.3773 18.1602H18.3238V14.5443C18.3238 10.3469 20.8158 8.0625 24.4708 8.0625H27.4661C27.5588 8.06346 27.6503 8.08269 27.7354 8.11909C27.8206 8.15549 27.8977 8.20835 27.9624 8.27463C28.0271 8.34091 28.0781 8.4193 28.1124 8.50533C28.1467 8.59135 28.1637 8.6833 28.1625 8.77591V11.9276C28.1637 12.0202 28.1467 12.1122 28.1124 12.1982C28.0781 12.2842 28.0271 12.3626 27.9624 12.4289C27.8977 12.4952 27.8206 12.548 27.7354 12.5844C27.6503 12.6208 27.5588 12.6401 27.4661 12.641H25.6289C23.6426 12.641 23.2565 13.6183 23.2565 15.0305V18.1602H27.6225C27.7218 18.1614 27.8197 18.1837 27.9098 18.2254C27.9999 18.2672 28.0801 18.3276 28.1452 18.4026C28.2102 18.4776 28.2587 18.5655 28.2874 18.6606C28.316 18.7557 28.3243 18.8557 28.3115 18.9542Z" fill="white"/>
</g>
<defs>
<clipPath id="clip0_478_619">
<rect width="43" height="43" fill="white"/>
</clipPath>
</defs>
</svg>
